<svg width="70" height="70" viewBox="0 0 70 70" fill="none" xmlns="http://www.w3.org/2000/svg">
<path d="M63.4667 46.4333L44.8001 12.8333C42.2917 8.31242 38.8209 5.83325 35.0001 5.83325C31.1792 5.83325 27.7084 8.31242 25.2001 12.8333L6.53339 46.4333C4.17089 50.7208 3.90839 54.8333 5.80422 58.0708C7.70006 61.3083 11.4334 63.0874 16.3334 63.0874H53.6667C58.5667 63.0874 62.3001 61.3083 64.1959 58.0708C66.0917 54.8333 65.8292 50.6916 63.4667 46.4333ZM32.8126 26.2499C32.8126 25.0541 33.8042 24.0624 35.0001 24.0624C36.1959 24.0624 37.1876 25.0541 37.1876 26.2499V40.8333C37.1876 42.0291 36.1959 43.0208 35.0001 43.0208C33.8042 43.0208 32.8126 42.0291 32.8126 40.8333V26.2499ZM37.0709 51.6541C36.9251 51.7708 36.7792 51.8874 36.6334 52.0041C36.4584 52.1208 36.2834 52.2083 36.1084 52.2666C35.9334 52.3541 35.7584 52.4124 35.5542 52.4416C35.3792 52.4708 35.1751 52.4999 35.0001 52.4999C34.8251 52.4999 34.6209 52.4708 34.4167 52.4416C34.2417 52.4124 34.0667 52.3541 33.8917 52.2666C33.7167 52.2083 33.5417 52.1208 33.3667 52.0041C33.2209 51.8874 33.0751 51.7708 32.9292 51.6541C32.4042 51.0999 32.0834 50.3416 32.0834 49.5833C32.0834 48.8249 32.4042 48.0666 32.9292 47.5124C33.0751 47.3958 33.2209 47.2791 33.3667 47.1624C33.5417 47.0458 33.7167 46.9583 33.8917 46.8999C34.0667 46.8124 34.2417 46.7541 34.4167 46.7249C34.7959 46.6374 35.2042 46.6374 35.5542 46.7249C35.7584 46.7541 35.9334 46.8124 36.1084 46.8999C36.2834 46.9583 36.4584 47.0458 36.6334 47.1624C36.7792 47.2791 36.9251 47.3958 37.0709 47.5124C37.5959 48.0666 37.9167 48.8249 37.9167 49.5833C37.9167 50.3416 37.5959 51.0999 37.0709 51.6541Z" fill="#FB4141"/>
</svg>
