<svg width="64" height="72" viewBox="0 0 64 72" fill="none" xmlns="http://www.w3.org/2000/svg">
<g filter="url(#filter0_d_1211_444)">
<circle cx="32.2036" cy="38.3267" r="27.6939" fill="url(#paint0_linear_1211_444)"/>
</g>
<g clip-path="url(#clip0_1211_444)">
<path d="M49.1066 0H13.8934C11.1909 0 9 2.19087 9 4.89344V40.1066C9 42.8091 11.1909 45 13.8934 45H49.1066C51.8091 45 54 42.8091 54 40.1066V4.89344C54 2.19087 51.8091 0 49.1066 0Z" fill="#FFF4E0"/>
<path d="M49.1066 0H13.8934C11.1909 0 9 2.19087 9 4.89344V40.1066C9 42.8091 11.1909 45 13.8934 45H49.1066C51.8091 45 54 42.8091 54 40.1066V4.89344C54 2.19087 51.8091 0 49.1066 0Z" fill="url(#paint1_linear_1211_444)"/>
<path d="M48.7164 0.499023H14.2835C11.6411 0.499023 9.49902 2.64111 9.49902 5.2835V39.7164C9.49902 42.3588 11.6411 44.5009 14.2835 44.5009H48.7164C51.3588 44.5009 53.5009 42.3588 53.5009 39.7164V5.2835C53.5009 2.64111 51.3588 0.499023 48.7164 0.499023Z" fill="url(#paint2_linear_1211_444)"/>
<path d="M48.2608 1.08154H14.7396C12.167 1.08154 10.0815 3.16702 10.0815 5.73958V39.2608C10.0815 41.8334 12.167 43.9189 14.7396 43.9189H48.2608C50.8334 43.9189 52.9189 41.8334 52.9189 39.2608V5.73958C52.9189 3.16702 50.8334 1.08154 48.2608 1.08154Z" fill="#FFF4E0"/>
<path d="M47.5118 7.46533H15.4878V37.5347H47.5118V7.46533Z" fill="url(#paint3_linear_1211_444)"/>
<path d="M47.4498 7.99609H15.4258V37.0257H47.4498V7.99609Z" fill="#00B2C4"/>
<path d="M43.4736 17.5024C43.4736 17.6899 43.3992 17.8698 43.2666 18.0024C43.134 18.135 42.9541 18.2095 42.7666 18.2095H36.5723C36.3848 18.2092 36.2051 18.1347 36.0726 18.0021C35.94 17.8696 35.8655 17.6899 35.8652 17.5024C35.8652 17.3149 35.9397 17.1351 36.0723 17.0025C36.2049 16.8699 36.3847 16.7954 36.5723 16.7954H42.7666C42.8595 16.7953 42.9515 16.8135 43.0373 16.849C43.1231 16.8845 43.2011 16.9366 43.2668 17.0023C43.3325 17.0679 43.3845 17.1459 43.42 17.2317C43.4555 17.3176 43.4738 17.4096 43.4736 17.5024Z" fill="white"/>
<path d="M34.6191 18.9165C34.6191 19.104 34.5446 19.2838 34.412 19.4164C34.2794 19.549 34.0996 19.6235 33.9121 19.6235H32.4307C32.2432 19.6233 32.0635 19.5487 31.931 19.4162C31.7984 19.2837 31.7239 19.1039 31.7236 18.9165C31.7236 18.729 31.7981 18.5492 31.9307 18.4166C32.0633 18.284 32.2431 18.2095 32.4307 18.2095H33.9162C34.0091 18.2094 34.1011 18.2276 34.1869 18.2631C34.2728 18.2986 34.3507 18.3506 34.4164 18.4163C34.4821 18.482 34.5342 18.56 34.5697 18.6458C34.6052 18.7316 34.6234 18.8236 34.6233 18.9165H34.6191Z" fill="white"/>
<path d="M27.8525 9.96093C27.8525 10.1484 27.778 10.3283 27.6454 10.4609C27.5128 10.5935 27.333 10.668 27.1455 10.668H25.6641C25.5712 10.6681 25.4792 10.6499 25.3934 10.6144C25.3075 10.5789 25.2295 10.5268 25.1639 10.4611C25.0982 10.3954 25.0461 10.3175 25.0106 10.2316C24.9751 10.1458 24.9569 10.0538 24.957 9.96093C24.957 9.77342 25.0315 9.59358 25.1641 9.46099C25.2967 9.3284 25.4765 9.25391 25.6641 9.25391H27.1455C27.3329 9.25413 27.5126 9.32869 27.6452 9.46123C27.7777 9.59378 27.8523 9.77348 27.8525 9.96093Z" fill="white"/>
<path d="M38.4912 11.7449C38.4545 11.1091 38.176 10.5114 37.7128 10.0742C37.2497 9.63707 36.6369 9.39355 36 9.39355C35.3631 9.39355 34.7503 9.63707 34.2872 10.0742C33.824 10.5114 33.5455 11.1091 33.5088 11.7449C33.5088 11.8281 33.5129 11.903 33.5196 11.9811H38.4796C38.4912 11.903 38.4912 11.8248 38.4912 11.7449Z" fill="#FFCD1C"/>
<path d="M43.5754 11.981H28.4268C28.2392 11.981 28.0594 12.0554 27.9268 12.188C27.7942 12.3206 27.7197 12.5005 27.7197 12.688C27.7197 12.8755 27.7942 13.0553 27.9268 13.1879C28.0594 13.3205 28.2392 13.395 28.4268 13.395H29.4033C29.5908 13.395 29.7706 13.4695 29.9032 13.6021C30.0358 13.7347 30.1103 13.9145 30.1103 14.102C30.1103 14.2895 30.0358 14.4694 29.9032 14.602C29.7706 14.7346 29.5908 14.8091 29.4033 14.8091H29.3359C29.1484 14.8091 28.9685 14.8835 28.836 15.0161C28.7034 15.1487 28.6289 15.3286 28.6289 15.5161C28.6289 15.7036 28.7034 15.8834 28.836 16.016C28.9685 16.1486 29.1484 16.2231 29.3359 16.2231H41.0517C41.2392 16.2231 41.4191 16.1486 41.5516 16.016C41.6842 15.8834 41.7587 15.7036 41.7587 15.5161C41.7587 15.3286 41.6842 15.1487 41.5516 15.0161C41.4191 14.8835 41.2392 14.8091 41.0517 14.8091H40.9868C40.7993 14.8091 40.6195 14.7346 40.4869 14.602C40.3543 14.4694 40.2798 14.2895 40.2798 14.102C40.2798 13.9145 40.3543 13.7347 40.4869 13.6021C40.6195 13.4695 40.7993 13.395 40.9868 13.395H43.5795C43.767 13.395 43.9469 13.3205 44.0795 13.1879C44.2121 13.0553 44.2866 12.8755 44.2866 12.688C44.2866 12.5005 44.2121 12.3206 44.0795 12.188C43.9469 12.0554 43.767 11.981 43.5795 11.981H43.5754Z" fill="white"/>
<path d="M15.4878 37.0148V30.3122C16.9285 26.3196 19.9146 22.5 21.3519 22.5C23.8473 22.5 25.4834 31.3661 27.7151 31.3661C29.9468 31.3661 30.5017 25.4321 31.9989 25.4321C33.4961 25.4321 35.9225 29.7574 37.7108 29.7574C39.4992 29.7574 42.3688 22.5 43.8103 22.5C45.2518 22.5 47.5118 28.0938 47.5118 28.0938V37.0148H15.4878Z" fill="#CF794A"/>
<path d="M32.0034 25.4321C31.338 25.4321 30.8614 26.5966 30.3399 27.8984C30.0205 28.6936 31.1059 27.8052 32.5117 28.6911C33.9174 29.577 35.1235 27.9907 34.6261 27.4609C33.6487 26.4261 32.7171 25.4321 32.0034 25.4321Z" fill="white"/>
<path d="M45.9884 24.9047C45.2855 23.6479 44.4645 22.5 43.8107 22.5C43.1569 22.5 42.2378 23.9482 41.2471 25.551C40.6191 26.5675 42.1022 27.8376 43.5762 26.5242C45.0501 25.2108 46.4026 25.6442 45.9884 24.9047Z" fill="white"/>
<path d="M24.275 26.1466C23.385 24.221 22.4518 22.5 21.3521 22.5C20.4089 22.5 18.7977 24.1453 17.3945 26.4094C17.0459 26.9717 19.2726 25.8272 20.5619 27.3244C21.8512 28.8216 24.6668 26.9942 24.275 26.1466Z" fill="white"/>
<path d="M22.9982 17.0973C22.9781 17.0773 22.9509 17.0661 22.9225 17.0661C22.8941 17.0661 22.8669 17.0773 22.8468 17.0973L22.386 17.5581L21.7971 16.9692C21.777 16.9492 21.7498 16.938 21.7214 16.938C21.693 16.938 21.6658 16.9492 21.6457 16.9692C21.6356 16.9791 21.6276 16.9908 21.6221 17.0039C21.6166 17.0169 21.6138 17.0308 21.6138 17.0449C21.6138 17.059 21.6166 17.073 21.6221 17.086C21.6276 17.099 21.6356 17.1108 21.6457 17.1206L22.2338 17.7095L22.386 17.8609L22.5374 17.7095L22.9982 17.2487C23.0182 17.2286 23.0295 17.2014 23.0295 17.173C23.0295 17.1447 23.0182 17.1174 22.9982 17.0973Z" fill="#3C3C3B"/>
<path d="M22.0624 15.0456C22.0423 15.0255 22.015 15.0143 21.9867 15.0143C21.9583 15.0143 21.9311 15.0255 21.911 15.0456L21.4502 15.5064L20.8613 14.9175C20.8513 14.9075 20.8394 14.8996 20.8264 14.8943C20.8133 14.8889 20.7994 14.8862 20.7853 14.8862C20.7712 14.8863 20.7572 14.8891 20.7442 14.8945C20.7312 14.8999 20.7194 14.9079 20.7095 14.9179C20.6995 14.9279 20.6916 14.9397 20.6863 14.9528C20.6809 14.9658 20.6782 14.9798 20.6782 14.9939C20.6783 15.008 20.6811 15.0219 20.6865 15.0349C20.6919 15.0479 20.6999 15.0597 20.7099 15.0697L21.2988 15.6586L21.4502 15.81L21.6016 15.6586L22.0624 15.1969C22.0824 15.1768 22.0936 15.1496 22.0936 15.1212C22.0936 15.0929 22.0824 15.0657 22.0624 15.0456Z" fill="#3C3C3B"/>
<path d="M19.9745 15.9689C19.9544 15.9489 19.9272 15.9376 19.8988 15.9376C19.8704 15.9376 19.8432 15.9489 19.8231 15.9689L19.3623 16.4297L18.7734 15.8408C18.7634 15.8309 18.7515 15.823 18.7385 15.8176C18.7254 15.8123 18.7115 15.8095 18.6974 15.8096C18.6833 15.8096 18.6693 15.8124 18.6563 15.8179C18.6433 15.8233 18.6315 15.8312 18.6216 15.8412C18.6116 15.8512 18.6038 15.8631 18.5984 15.8761C18.593 15.8891 18.5903 15.9031 18.5903 15.9172C18.5904 15.9313 18.5932 15.9453 18.5986 15.9583C18.604 15.9713 18.612 15.9831 18.622 15.993L19.2109 16.5819L19.3623 16.7333L19.5137 16.5819L19.9745 16.1203C19.9945 16.1002 20.0057 16.073 20.0057 16.0446C20.0057 16.0162 19.9945 15.989 19.9745 15.9689Z" fill="#3C3C3B"/>
</g>
<defs>
<filter id="filter0_d_1211_444" x="0.509766" y="7.63281" width="63.3877" height="63.3877" filterUnits="userSpaceOnUse" color-interpolation-filters="sRGB">
<feFlood flood-opacity="0" result="BackgroundImageFix"/>
<feColorMatrix in="SourceAlpha" type="matrix" values="0 0 0 0 0 0 0 0 0 0 0 0 0 0 0 0 0 0 127 0" result="hardAlpha"/>
<feOffset dy="1"/>
<feGaussianBlur stdDeviation="2"/>
<feComposite in2="hardAlpha" operator="out"/>
<feColorMatrix type="matrix" values="0 0 0 0 0 0 0 0 0 0 0 0 0 0 0 0 0 0 0.16 0"/>
<feBlend mode="normal" in2="BackgroundImageFix" result="effect1_dropShadow_1211_444"/>
<feBlend mode="normal" in="SourceGraphic" in2="effect1_dropShadow_1211_444" result="shape"/>
</filter>
<linearGradient id="paint0_linear_1211_444" x1="17.1526" y1="14.8471" x2="43.0404" y2="61.8063" gradientUnits="userSpaceOnUse">
<stop stop-color="#FF8631"/>
<stop offset="1" stop-color="#D05600"/>
</linearGradient>
<linearGradient id="paint1_linear_1211_444" x1="31.5" y1="45.1664" x2="31.5" y2="0.166356" gradientUnits="userSpaceOnUse">
<stop stop-color="#C5C5C5" stop-opacity="0.3"/>
<stop offset="1" stop-color="#FFF4E0"/>
</linearGradient>
<linearGradient id="paint2_linear_1211_444" x1="31.4999" y1="0.499023" x2="31.4999" y2="44.7329" gradientUnits="userSpaceOnUse">
<stop stop-color="white" stop-opacity="0.6"/>
<stop offset="1" stop-color="#FFF4E0"/>
</linearGradient>
<linearGradient id="paint3_linear_1211_444" x1="31.4998" y1="7.11182" x2="31.4998" y2="38.1568" gradientUnits="userSpaceOnUse">
<stop stop-color="#B1B1B1" stop-opacity="0.7"/>
<stop offset="1" stop-color="white"/>
</linearGradient>
<clipPath id="clip0_1211_444">
<rect width="45" height="45" fill="white" transform="translate(9)"/>
</clipPath>
</defs>
</svg>
