<svg width="388" height="406" viewBox="0 0 388 406" fill="none" xmlns="http://www.w3.org/2000/svg">
<circle cx="192.259" cy="224.778" r="121.593" fill="#FC7A1E"/>
<circle cx="338.352" cy="114.981" r="11.7963" fill="#FC7A1E"/>
<ellipse cx="57.0556" cy="74.1481" rx="19.0556" ry="18.1481" fill="#FC7A1E"/>
<ellipse cx="47.0741" cy="303.722" rx="9.07407" ry="9.98148" fill="#FC7A1E"/>
<ellipse cx="316.574" cy="346.37" rx="4.53704" ry="3.62963" fill="#FC7A1E"/>
<path d="M183.226 257.658C180.647 257.658 178.069 256.553 176.595 254.343L155.966 227.82C153.019 224.136 153.756 218.979 157.44 216.032C161.124 213.085 166.281 213.822 169.228 217.505L183.226 235.556L214.17 195.403C217.117 191.719 222.274 190.982 225.958 193.93C229.641 196.877 230.378 202.034 227.431 205.717L189.857 254.343C188.015 256.185 185.805 257.658 183.226 257.658Z" fill="white"/>
<circle cx="243.981" cy="243.833" r="4.53704" fill="white"/>
<circle cx="125.111" cy="193.926" r="7.25926" fill="white"/>
<circle cx="231.278" cy="154.907" r="2.72222" fill="white"/>
<circle cx="155.963" cy="282.852" r="3.62963" fill="white"/>
<circle cx="195.889" cy="195.741" r="1.81481" fill="white"/>
</svg>
