<svg width="191" height="48" viewBox="0 0 191 48" fill="none" xmlns="http://www.w3.org/2000/svg">
<g clip-path="url(#clip0_369_1628)">
<path d="M15.6216 20.3495L0 5.63173C0.0642697 1.26847 4.06129 1.09631 4.06129 1.09631L19.2399 16.5344C18.3941 16.861 17.6308 17.3726 17.0051 18.0324C16.3794 18.6921 15.9069 19.4835 15.6216 20.3495Z" fill="black"/>
<path d="M53.8156 39.195C52.2157 42.5748 46.1019 52.0382 29.5791 46.0676C12.7309 39.1096 18.444 24.1549 18.444 24.1549C18.5539 23.8868 18.6914 23.6311 18.8542 23.3919L16.5063 21.1882C16.6185 20.6373 17.2639 18.2863 20.0617 17.3842L23.4803 20.8549C27.5307 20.0713 33.4202 20.8659 39.4794 23.3162C41.0245 23.9379 42.5314 24.6522 43.9919 25.4551C44.0083 25.8091 44.0288 26.1699 44.0671 26.5349C42.4767 25.644 40.8326 24.8542 39.1443 24.1701C30.0057 20.4789 21.3895 20.5106 19.9003 24.2458C18.4112 27.981 24.6125 34.0039 33.7566 37.702C34.1463 37.8576 34.5347 38.0077 34.9244 38.1523L37.4268 39.1578C40.1795 40.2596 43.4613 40.4951 45.734 40.4951C47.3394 40.4951 48.4334 40.3822 48.4689 40.378C50.287 40.1712 52.0789 39.7747 53.8156 39.195Z" fill="black"/>
<path d="M70.7336 8.31744C70.7336 8.31744 67.501 11.8984 60.7513 13.0278C52.1528 13.8831 48.4525 20.22 48.4525 20.22C48.4525 20.22 47.9452 18.9901 49.623 16.7299C49.623 16.7299 43.4053 17.9915 45.4318 28.7055C45.6391 29.6769 45.6729 30.6778 45.5317 31.6612C45.5317 31.6612 45.1597 36.4362 37.7947 38.1537C40.3928 39.1977 43.5379 39.4167 45.7081 39.4167C47.2751 39.4167 48.339 39.3038 48.339 39.3038C48.339 39.3038 56.6462 38.5986 61.9669 33.1183C66.1964 28.7647 66.2142 24.6728 66.0501 23.1757C66.0419 23.1757 64.7811 25.8187 61.8835 26.9687L61.8753 26.9563C61.6314 27.026 61.3795 27.0631 61.1259 27.0665C60.4422 27.0665 59.6546 26.7346 60.4819 24.9111C61.4678 23.6715 63.0171 22.3149 65.4443 21.2819C71.3858 18.7532 70.7336 8.31744 70.7336 8.31744ZM62.5098 28.9589C62.5098 28.9589 58.6468 37.4072 46.6379 36.2586C46.6379 36.2586 49.1089 33.0178 48.1421 27.7827C47.4898 23.2941 51.1614 18.5259 58.7904 17.8855C58.7904 17.8855 53.348 21.0175 53.884 26.8172C54.42 32.617 62.5098 28.9589 62.5098 28.9589Z" fill="black"/>
<path d="M69.0078 4.23517C69.1446 0.611516 70.6857 0 70.6857 0C70.6857 0 67.0196 0.43798 66.8705 3.11957C66.7215 5.80115 67.1905 6.35895 65.9133 8.19075C65.9174 8.19075 68.867 7.8602 69.0078 4.23517Z" fill="black"/>
<path d="M52.6054 12.3102C53.925 11.0706 52.9473 9.51569 52.9473 9.51569C52.9473 9.51569 53.229 10.4137 51.9504 11.404C50.6718 12.3942 51.4034 13.85 51.4034 13.85C51.4034 13.85 51.2858 13.5484 52.6054 12.3102Z" fill="black"/>
<path d="M77.8088 14.3087H82.5798C85.8166 14.3087 88.0496 16.1612 88.0496 19.1843C88.0496 22.2075 85.822 24.0599 82.5798 24.0599H77.8088V14.3087ZM82.4417 21.4968C83.8092 21.4968 84.7513 20.6704 84.7513 19.1843C84.7513 17.6982 83.8119 16.8719 82.4417 16.8719H81.0743V21.4968H82.4417Z" fill="black"/>
<path d="M88.8181 14.2247C88.8181 13.3198 89.5511 12.6229 90.6983 12.6229C91.8456 12.6229 92.5799 13.2633 92.5799 14.1696C92.5799 15.1337 91.847 15.8223 90.6983 15.8223C89.5497 15.8223 88.8181 15.1309 88.8181 14.2247ZM89.1354 16.4407H92.2613V24.0599H89.1354V16.4407Z" fill="black"/>
<path d="M93.645 13.7233H96.771V24.0599H93.645V13.7233Z" fill="black"/>
<path d="M105.636 19.9652V24.0599H102.732V23.0573C102.372 23.823 101.653 24.2004 100.588 24.2004C98.7348 24.2004 97.7803 23.1413 97.7803 21.8315C97.7803 20.355 98.8865 19.5328 101.239 19.5328H102.497C102.399 18.9474 101.958 18.6417 101.072 18.6417C100.381 18.6398 99.7059 18.8486 99.1354 19.2408L98.1399 17.1666C99.0247 16.6088 100.366 16.3016 101.542 16.3016C104.143 16.3003 105.636 17.4296 105.636 19.9652ZM102.51 21.5808V21.0519H101.736C101.072 21.0519 100.779 21.2737 100.779 21.6924C100.779 22.0408 101.053 22.3053 101.526 22.3053C101.747 22.3127 101.964 22.2454 102.142 22.1141C102.321 21.9828 102.45 21.795 102.51 21.5808Z" fill="black"/>
<path d="M115.346 19.7146V24.0599H112.22V20.2572C112.22 19.3096 111.861 18.9474 111.293 18.9474C110.657 18.9474 110.117 19.3523 110.117 20.4803V24.0613H106.986V16.4407H109.96V17.1927C110.262 16.8979 110.619 16.6669 111.011 16.5137C111.403 16.3604 111.822 16.2878 112.242 16.3003C113.99 16.3003 115.346 17.3181 115.346 19.7146Z" fill="black"/>
<path d="M124.184 19.9652V24.0599H121.28V23.0573C120.92 23.823 120.201 24.2004 119.136 24.2004C117.281 24.2004 116.327 23.1413 116.327 21.8315C116.327 20.355 117.435 19.5328 119.785 19.5328H121.045C120.947 18.9474 120.504 18.6417 119.62 18.6417C118.929 18.6398 118.254 18.8486 117.683 19.2408L116.687 17.1666C117.573 16.6088 118.914 16.3016 120.09 16.3016C122.69 16.3003 124.184 17.4296 124.184 19.9652ZM121.058 21.5808V21.0519H120.283C119.62 21.0519 119.326 21.2737 119.326 21.6924C119.326 22.0408 119.599 22.3053 120.074 22.3053C120.295 22.3125 120.511 22.2451 120.69 22.1138C120.868 21.9825 120.998 21.7949 121.058 21.5808Z" fill="black"/>
<path d="M131.887 16.8581H129.052V14.3087H137.987V16.8581H135.155V24.0599H131.887V16.8581Z" fill="black"/>
<path d="M145.871 19.9652V24.0599H142.966V23.0573C142.607 23.823 141.887 24.2004 140.822 24.2004C138.969 24.2004 138.015 23.1413 138.015 21.8315C138.015 20.355 139.121 19.5328 141.473 19.5328H142.731C142.634 18.9474 142.192 18.6417 141.306 18.6417C140.615 18.6398 139.94 18.8486 139.37 19.2408L138.374 17.1666C139.259 16.6088 140.6 16.3016 141.776 16.3016C144.377 16.3003 145.871 17.4296 145.871 19.9652ZM142.745 21.5808V21.0519H141.971C141.306 21.0519 141.013 21.2737 141.013 21.6924C141.013 22.0408 141.287 22.3053 141.76 22.3053C141.981 22.3127 142.198 22.2454 142.376 22.1141C142.555 21.9828 142.685 21.795 142.745 21.5808Z" fill="black"/>
<path d="M155.581 19.7146V24.0599H152.453V20.2572C152.453 19.3096 152.095 18.9474 151.528 18.9474C150.892 18.9474 150.352 19.3523 150.352 20.4803V24.0613H147.226V16.4407H150.197V17.1927C150.499 16.8979 150.856 16.6669 151.248 16.5137C151.64 16.3604 152.059 16.2878 152.479 16.3003C154.224 16.3003 155.581 17.3181 155.581 19.7146Z" fill="black"/>
<path d="M165.441 13.7233V24.0599H162.467V23.4332C162.012 23.9497 161.333 24.2004 160.393 24.2004C158.415 24.2004 156.741 22.695 156.741 20.2434C156.741 17.7918 158.415 16.3002 160.393 16.3002C161.223 16.3002 161.858 16.5096 162.315 16.9558V13.7233H165.441ZM162.367 20.2434C162.367 19.2545 161.82 18.7532 161.136 18.7532C160.453 18.7532 159.906 19.2545 159.906 20.2434C159.906 21.2323 160.446 21.7474 161.136 21.7474C161.827 21.7474 162.367 21.2323 162.367 20.2434Z" fill="black"/>
<path d="M166.423 20.2434C166.423 17.9309 168.262 16.3002 170.821 16.3002C173.379 16.3002 175.221 17.9309 175.221 20.2434C175.221 22.5559 173.395 24.2004 170.822 24.2004C168.248 24.2004 166.423 22.5559 166.423 20.2434ZM172.053 20.2434C172.053 19.2545 171.512 18.7532 170.822 18.7532C170.131 18.7532 169.591 19.2545 169.591 20.2434C169.591 21.2323 170.131 21.7474 170.822 21.7474C171.512 21.7474 172.053 21.2323 172.053 20.2434Z" fill="black"/>
<path d="M175.8 20.2434C175.8 17.9309 177.64 16.3002 180.199 16.3002C182.757 16.3002 184.598 17.9309 184.598 20.2434C184.598 22.5559 182.771 24.2004 180.199 24.2004C177.626 24.2004 175.8 22.5559 175.8 20.2434ZM181.429 20.2434C181.429 19.2545 180.891 18.7532 180.199 18.7532C179.507 18.7532 178.968 19.2545 178.968 20.2434C178.968 21.2323 179.507 21.7474 180.199 21.7474C180.891 21.7474 181.429 21.2323 181.429 20.2434Z" fill="black"/>
<path d="M191.001 16.3002V19.0865C190.773 19.0498 190.541 19.0313 190.309 19.0314C189.369 19.0314 188.704 19.4625 188.704 20.6759V24.0599H185.578V16.4407H188.552V17.2671C189.106 16.6156 189.95 16.3002 191.001 16.3002Z" fill="black"/>
<path d="M90.7556 31.7135H88.7714L88.3612 32.6528H87.8142L89.5044 28.8928H90.0295L91.7265 32.6528H91.1658L90.7556 31.7135ZM90.5682 31.2838L89.7628 29.441L88.9588 31.2838H90.5682Z" fill="black"/>
<path d="M94.787 29.806V32.6528H94.3015V32.2231C94.1908 32.3722 94.0459 32.4922 93.8793 32.5727C93.7126 32.6533 93.5291 32.6921 93.3443 32.6859C92.6141 32.6859 92.1287 32.2823 92.1287 31.4463V29.8073H92.6415V31.3871C92.6415 31.9463 92.9149 32.2245 93.4031 32.2245C93.9364 32.2245 94.2783 31.8926 94.2783 31.2797V29.806H94.787Z" fill="black"/>
<path d="M97.3522 32.4875C97.1749 32.6232 96.9566 32.6932 96.7341 32.6859C96.1625 32.6859 95.837 32.3691 95.837 31.7934V30.2302H95.3625V29.8059H95.8425V29.1834H96.3553V29.8059H97.1662V30.2302H96.3553V31.7727C96.3553 32.0785 96.5153 32.2506 96.7984 32.2506C96.9431 32.2516 97.0839 32.2031 97.1976 32.1129L97.3522 32.4875Z" fill="black"/>
<path d="M100.653 31.0152V32.6528H100.149V31.0772C100.149 30.518 99.875 30.2439 99.3855 30.2439C98.8385 30.2439 98.4898 30.5717 98.4898 31.1901V32.6556H97.9771V28.6669H98.4898V30.2095C98.6124 30.066 98.7659 29.9526 98.9387 29.8781C99.1115 29.8036 99.299 29.77 99.4867 29.7798C100.168 29.7798 100.653 30.1764 100.653 31.0152Z" fill="black"/>
<path d="M104.162 31.4022H101.869C101.933 31.9008 102.334 32.2286 102.893 32.2286C103.046 32.2347 103.199 32.2073 103.341 32.148C103.482 32.0888 103.61 31.9993 103.713 31.8857L103.995 32.2176C103.855 32.3727 103.682 32.4946 103.489 32.5746C103.297 32.6546 103.089 32.6907 102.881 32.6804C101.969 32.6804 101.361 32.073 101.361 31.2246C101.354 31.034 101.385 30.8438 101.454 30.6659C101.522 30.4879 101.626 30.326 101.759 30.1901C101.891 30.0542 102.051 29.9471 102.226 29.8756C102.402 29.8041 102.59 29.7696 102.779 29.7743C103.6 29.7743 104.177 30.3651 104.177 31.2411C104.173 31.2893 104.167 31.3527 104.162 31.4022ZM101.869 31.0318H103.682C103.657 30.8069 103.551 30.599 103.384 30.448C103.217 30.297 103 30.2136 102.775 30.2136C102.551 30.2136 102.334 30.297 102.167 30.448C101.999 30.599 101.893 30.8069 101.869 31.0318Z" fill="black"/>
<path d="M107.566 31.0152V32.6528H107.053V31.0772C107.053 30.518 106.779 30.2439 106.29 30.2439C105.743 30.2439 105.394 30.5717 105.394 31.1901V32.6556H104.883V29.806H105.374V30.2357C105.582 29.9464 105.944 29.7798 106.391 29.7798C107.08 29.7798 107.566 30.1764 107.566 31.0152Z" fill="black"/>
<path d="M110.104 32.4875C109.926 32.6234 109.707 32.6934 109.484 32.6859C108.914 32.6859 108.588 32.3691 108.588 31.7934V30.2302H108.108V29.8059H108.588V29.1834H109.101V29.8059H109.911V30.2302H109.101V31.7727C109.101 32.0785 109.261 32.2506 109.543 32.2506C109.688 32.2518 109.829 32.2033 109.943 32.1129L110.104 32.4875Z" fill="black"/>
<path d="M110.631 28.9259C110.631 28.8806 110.64 28.8357 110.658 28.794C110.675 28.7522 110.701 28.7144 110.733 28.6828C110.765 28.6513 110.804 28.6265 110.846 28.61C110.888 28.5936 110.932 28.5858 110.977 28.5871C111.022 28.5849 111.066 28.5916 111.108 28.6071C111.149 28.6225 111.188 28.6462 111.22 28.6768C111.252 28.7073 111.278 28.7442 111.296 28.7851C111.314 28.826 111.324 28.8701 111.325 28.9149C111.321 29.0039 111.283 29.088 111.22 29.1501C111.156 29.2122 111.072 29.2475 110.983 29.2489C110.895 29.2503 110.809 29.2177 110.744 29.1577C110.678 29.0976 110.638 29.0147 110.631 28.9259ZM110.722 29.806H111.234V32.6528H110.722V29.806Z" fill="black"/>
<path d="M111.948 31.2301C111.948 30.3817 112.572 29.7798 113.441 29.7798C113.949 29.7798 114.37 29.9891 114.594 30.3872L114.205 30.6392C114.123 30.5093 114.009 30.403 113.874 30.3306C113.74 30.2582 113.589 30.2221 113.436 30.226C113.305 30.2214 113.175 30.2443 113.054 30.2932C112.933 30.3421 112.823 30.416 112.731 30.5101C112.64 30.6042 112.569 30.7165 112.523 30.8397C112.477 30.963 112.458 31.0945 112.465 31.2259C112.465 31.843 112.875 32.23 113.436 32.23C113.589 32.234 113.74 32.1981 113.874 32.1256C114.009 32.0532 114.123 31.9468 114.205 31.8168L114.594 32.0633C114.37 32.4614 113.949 32.6762 113.441 32.6762C112.572 32.6859 111.948 32.0785 111.948 31.2301Z" fill="black"/>
<path d="M116.764 28.8928H117.298V32.6528H116.764V28.8928Z" fill="black"/>
<path d="M121.025 31.0152V32.6528H120.514V31.0772C120.514 30.518 120.241 30.2439 119.751 30.2439C119.204 30.2439 118.855 30.5717 118.855 31.1901V32.6556H118.343V29.806H118.833V30.2357C119.041 29.9464 119.404 29.7798 119.852 29.7798C120.54 29.7798 121.025 30.1764 121.025 31.0152Z" fill="black"/>
<path d="M124.657 28.6669V32.6528H124.166V32.2024C124.05 32.3595 123.897 32.4857 123.722 32.5699C123.546 32.6542 123.353 32.694 123.158 32.6859C122.331 32.6859 121.729 32.1005 121.729 31.2301C121.729 30.3596 122.331 29.7798 123.158 29.7798C123.347 29.7726 123.534 29.8101 123.705 29.8893C123.877 29.9685 124.027 30.0872 124.144 30.2357V28.6669H124.657ZM124.15 31.2301C124.15 30.6227 123.74 30.2302 123.201 30.2302C122.662 30.2302 122.244 30.6227 122.244 31.2301C122.244 31.8375 122.654 32.2341 123.201 32.2341C123.748 32.2341 124.15 31.8375 124.15 31.2301Z" fill="black"/>
<path d="M125.537 28.9259C125.537 28.8805 125.546 28.8355 125.563 28.7936C125.581 28.7518 125.607 28.7139 125.639 28.6823C125.671 28.6507 125.71 28.626 125.752 28.6096C125.794 28.5933 125.839 28.5856 125.884 28.5871C125.928 28.585 125.972 28.592 126.014 28.6075C126.055 28.623 126.094 28.6467 126.126 28.6773C126.158 28.7078 126.184 28.7446 126.202 28.7854C126.22 28.8262 126.229 28.8703 126.23 28.9149C126.226 29.0039 126.188 29.088 126.125 29.1501C126.061 29.2122 125.977 29.2475 125.888 29.2489C125.8 29.2503 125.714 29.2177 125.649 29.1577C125.584 29.0976 125.543 29.0147 125.537 28.9259ZM125.628 29.806H126.14V32.6528H125.628V29.806Z" fill="black"/>
<path d="M129.356 30.9395V32.6583H128.865V32.2823C128.694 32.5413 128.379 32.6955 127.936 32.6955C127.296 32.6955 126.892 32.3512 126.892 31.8568C126.892 31.4009 127.184 31.0304 128.028 31.0304H128.837V30.9285C128.837 30.4932 128.587 30.2398 128.08 30.2398C127.756 30.2362 127.44 30.344 127.184 30.5456L126.971 30.1586C127.309 29.9094 127.72 29.7809 128.139 29.7936C128.918 29.7798 129.356 30.1558 129.356 30.9395ZM128.843 31.7893V31.3912H128.054C127.548 31.3912 127.403 31.5896 127.403 31.832C127.403 32.1157 127.638 32.2934 128.028 32.2934C128.418 32.2934 128.716 32.1102 128.843 31.7838V31.7893Z" fill="black"/>
<path d="M132.988 31.0152V32.6528H132.475V31.0772C132.475 30.518 132.201 30.2439 131.712 30.2439C131.165 30.2439 130.816 30.5717 130.816 31.1901V32.6556H130.305V29.806H130.796V30.2357C131.003 29.9464 131.366 29.7798 131.814 29.7798C132.502 29.7798 132.988 30.1764 132.988 31.0152Z" fill="black"/>
<path d="M138.15 32.6529L137.69 32.1915C137.525 32.3624 137.327 32.4987 137.109 32.5923C136.885 32.682 136.646 32.7265 136.405 32.7231C136.165 32.7278 135.927 32.6809 135.706 32.5854C135.514 32.5007 135.351 32.3614 135.237 32.1846C135.125 32.0034 135.068 31.7934 135.072 31.58C135.069 31.3327 135.146 31.0912 135.291 30.8913C135.458 30.6726 135.684 30.506 135.941 30.4106C135.851 30.3057 135.777 30.1872 135.723 30.0594C135.679 29.9438 135.657 29.8209 135.658 29.6972C135.656 29.541 135.7 29.3875 135.784 29.2565C135.873 29.1224 135.998 29.016 136.144 28.9493C136.316 28.8715 136.503 28.8334 136.691 28.8378C136.877 28.8323 137.061 28.8735 137.227 28.9576C137.367 29.0321 137.483 29.1472 137.558 29.2881C137.631 29.4321 137.661 29.5942 137.645 29.755H137.038C137.043 29.6997 137.038 29.6438 137.021 29.5908C137.004 29.5378 136.977 29.4887 136.941 29.4465C136.906 29.4098 136.863 29.3809 136.816 29.3619C136.769 29.3429 136.718 29.3342 136.668 29.3363C136.562 29.332 136.46 29.3697 136.382 29.441C136.347 29.4736 136.319 29.5133 136.3 29.5574C136.281 29.6015 136.272 29.6492 136.272 29.6972C136.274 29.7984 136.302 29.8973 136.354 29.9837C136.439 30.1156 136.537 30.2388 136.646 30.3514L137.628 31.3348L138.005 30.7067H138.661L138.181 31.5331L138.045 31.7535L138.946 32.6556L138.15 32.6529ZM137.291 31.7893L136.309 30.7949C135.889 30.9629 135.679 31.2173 135.68 31.5579C135.679 31.6446 135.696 31.7306 135.731 31.8099C135.766 31.8891 135.818 31.9597 135.883 32.0166C136.027 32.1438 136.214 32.2104 136.405 32.2025C136.573 32.2013 136.74 32.1638 136.892 32.0925C137.045 32.0213 137.181 31.9179 137.291 31.7893Z" fill="black"/>
<path d="M143.952 30.204C143.952 31.0207 143.365 31.5152 142.394 31.5152H141.471V32.6528H140.938V28.8928H142.394C143.36 28.8928 143.952 29.3873 143.952 30.204ZM143.419 30.204C143.419 29.6669 143.062 29.3611 142.378 29.3611H141.471V31.0469H142.378C143.062 31.0469 143.419 30.7411 143.419 30.204Z" fill="black"/>
<path d="M146.874 30.9395V32.6583H146.388V32.2823C146.218 32.5413 145.903 32.6955 145.461 32.6955C144.82 32.6955 144.415 32.3512 144.415 31.8568C144.415 31.4009 144.709 31.0304 145.552 31.0304H146.368V30.9285C146.368 30.4932 146.116 30.2398 145.61 30.2398C145.286 30.2357 144.97 30.3436 144.715 30.5456L144.501 30.1586C144.839 29.909 145.25 29.7805 145.669 29.7936C146.436 29.7798 146.874 30.1558 146.874 30.9395ZM146.363 31.7893V31.3912H145.572C145.066 31.3912 144.923 31.5896 144.923 31.832C144.923 32.1157 145.156 32.2934 145.546 32.2934C145.936 32.2934 146.231 32.1102 146.368 31.7838L146.363 31.7893Z" fill="black"/>
<path d="M148.921 31.3265L148.334 31.8774V32.6556H147.823V28.6669H148.334V31.2246L149.877 29.8059H150.495L149.305 30.9822L150.613 32.6528H149.984L148.921 31.3265Z" fill="black"/>
<path d="M150.98 28.9259C150.98 28.8806 150.989 28.8357 151.007 28.794C151.024 28.7522 151.05 28.7144 151.082 28.6828C151.115 28.6513 151.153 28.6265 151.195 28.61C151.237 28.5936 151.281 28.5858 151.326 28.5871C151.371 28.5849 151.415 28.5916 151.457 28.6071C151.499 28.6225 151.537 28.6462 151.569 28.6768C151.602 28.7073 151.628 28.7442 151.645 28.7851C151.663 28.826 151.673 28.8701 151.674 28.9149C151.67 29.0039 151.632 29.088 151.569 29.1501C151.505 29.2122 151.421 29.2475 151.332 29.2489C151.244 29.2503 151.158 29.2177 151.093 29.1577C151.027 29.0976 150.987 29.0147 150.98 28.9259ZM151.071 29.806H151.583V32.6528H151.071V29.806Z" fill="black"/>
<path d="M152.202 32.3526L152.415 31.9394C152.71 32.132 153.055 32.2344 153.406 32.2341C153.882 32.2341 154.079 32.0895 154.079 31.8471C154.079 31.208 152.292 31.7617 152.292 30.6282C152.292 30.1172 152.746 29.7743 153.471 29.7743C153.83 29.7681 154.185 29.8569 154.5 30.0318L154.282 30.445C154.036 30.2902 153.751 30.2117 153.461 30.2191C153.014 30.2191 152.795 30.3858 152.795 30.6103C152.795 31.2824 154.587 30.7343 154.587 31.8402C154.587 32.3567 154.117 32.6845 153.365 32.6845C152.9 32.6859 152.437 32.5399 152.202 32.3526Z" fill="black"/>
<path d="M156.819 32.4875C156.642 32.6234 156.424 32.6934 156.201 32.6859C155.631 32.6859 155.306 32.3691 155.306 31.7934V30.2302H154.826V29.8059H155.306V29.1834H155.817V29.8059H156.624V30.2302H155.813V31.7727C155.813 32.0785 155.973 32.2506 156.256 32.2506C156.401 32.2516 156.542 32.2031 156.655 32.1129L156.819 32.4875Z" fill="black"/>
<path d="M159.679 30.9395V32.6583H159.193V32.2823C159.022 32.5413 158.708 32.6955 158.265 32.6955C157.625 32.6955 157.22 32.3512 157.22 31.8568C157.22 31.4009 157.513 31.0304 158.357 31.0304H159.166V30.9285C159.166 30.4932 158.916 30.2398 158.41 30.2398C158.085 30.236 157.769 30.3438 157.513 30.5456L157.3 30.1586C157.638 29.9094 158.049 29.7809 158.467 29.7936C159.241 29.7798 159.679 30.1558 159.679 30.9395ZM159.166 31.7893V31.3912H158.377C157.871 31.3912 157.726 31.5896 157.726 31.832C157.726 32.1157 157.961 32.2934 158.351 32.2934C158.741 32.2934 159.039 32.1102 159.166 31.7838V31.7893Z" fill="black"/>
<path d="M163.311 31.0152V32.6528H162.798V31.0772C162.798 30.518 162.524 30.2439 162.036 30.2439C161.489 30.2439 161.139 30.5717 161.139 31.1901V32.6556H160.628V29.806H161.119V30.2357C161.326 29.9464 161.689 29.7798 162.137 29.7798C162.825 29.7798 163.311 30.1764 163.311 31.0152Z" fill="black"/>
<path d="M164.168 28.9259C164.168 28.8805 164.177 28.8356 164.195 28.7939C164.213 28.7521 164.238 28.7143 164.271 28.6828C164.303 28.6512 164.341 28.6265 164.383 28.61C164.425 28.5936 164.47 28.5858 164.515 28.5871C164.56 28.585 164.604 28.592 164.646 28.6074C164.687 28.6229 164.725 28.6466 164.758 28.6772C164.79 28.7077 164.816 28.7445 164.834 28.7853C164.852 28.8262 164.862 28.8702 164.863 28.9149C164.864 29.0077 164.829 29.0972 164.765 29.1639C164.701 29.2305 164.613 29.2688 164.521 29.2702C164.429 29.2717 164.34 29.2362 164.274 29.1716C164.207 29.1071 164.169 29.0187 164.168 28.9259ZM164.26 29.806H164.771V32.6528H164.26V29.806Z" fill="black"/>
<path d="M167.791 29.3611V30.6709H169.661V31.1337H167.791V32.6487H167.256V28.8887H169.888V29.357L167.791 29.3611Z" fill="black"/>
<path d="M170.216 31.2301C170.216 30.3817 170.84 29.7798 171.688 29.7798C172.535 29.7798 173.155 30.3817 173.155 31.2301C173.155 32.0785 172.537 32.6859 171.688 32.6859C170.838 32.6859 170.216 32.0785 170.216 31.2301ZM172.638 31.2301C172.638 30.6227 172.228 30.2302 171.681 30.2302C171.134 30.2302 170.724 30.6227 170.724 31.2301C170.724 31.8375 171.134 32.2341 171.681 32.2341C172.228 32.2341 172.638 31.8375 172.638 31.2301Z" fill="black"/>
<path d="M173.604 31.2301C173.604 30.3817 174.227 29.7798 175.075 29.7798C175.923 29.7798 176.542 30.3817 176.542 31.2301C176.542 32.0785 175.923 32.6859 175.075 32.6859C174.227 32.6859 173.604 32.0785 173.604 31.2301ZM176.024 31.2301C176.024 30.6227 175.614 30.2302 175.075 30.2302C174.536 30.2302 174.118 30.6227 174.118 31.2301C174.118 31.8375 174.528 32.2341 175.075 32.2341C175.622 32.2341 176.024 31.8375 176.024 31.2301Z" fill="black"/>
<path d="M179.917 28.6669V32.6528H179.426V32.2024C179.31 32.3597 179.157 32.486 178.982 32.5703C178.806 32.6545 178.613 32.6942 178.418 32.6859C177.598 32.6859 176.989 32.1005 176.989 31.2301C176.989 30.3596 177.592 29.7798 178.418 29.7798C178.607 29.7726 178.794 29.8101 178.966 29.8893C179.137 29.9685 179.288 30.0871 179.406 30.2357V28.6669H179.917ZM179.411 31.2301C179.411 30.6227 179.001 30.2302 178.461 30.2302C177.92 30.2302 177.503 30.6227 177.503 31.2301C177.503 31.8375 177.914 32.2341 178.461 32.2341C179.008 32.2341 179.411 31.8375 179.411 31.2301Z" fill="black"/>
</g>
<defs>
<clipPath id="clip0_369_1628">
<rect width="191" height="48" fill="white"/>
</clipPath>
</defs>
</svg>
