<svg width="20" height="82" viewBox="0 0 20 82" fill="none" xmlns="http://www.w3.org/2000/svg">
<path d="M15.7071 7.70711C16.0976 7.31658 16.0976 6.68342 15.7071 6.29289C15.3166 5.90237 14.6834 5.90237 14.2929 6.29289L8 12.5858L5.70711 10.2929C5.31658 9.90237 4.68342 9.90237 4.29289 10.2929C3.90237 10.6834 3.90237 11.3166 4.29289 11.7071L7.29289 14.7071C7.68342 15.0976 8.31658 15.0976 8.70711 14.7071L15.7071 7.70711Z" fill="#8C9099"/>
<path fill-rule="evenodd" clip-rule="evenodd" d="M10 0C4.47715 0 0 4.47715 0 10C0 15.5228 4.47715 20 10 20C15.5228 20 20 15.5228 20 10C20 4.47715 15.5228 0 10 0ZM2 10C2 5.58172 5.58172 2 10 2C14.4183 2 18 5.58172 18 10C18 14.4183 14.4183 18 10 18C5.58172 18 2 14.4183 2 10Z" fill="#8C9099"/>
<circle cx="10" cy="41.6667" r="3" transform="rotate(90 10 41.6667)" fill="#8C9099"/>
<circle cx="10" cy="60" r="3" transform="rotate(90 10 60)" fill="#8C9099"/>
<circle cx="10" cy="78.3333" r="3" transform="rotate(90 10 78.3333)" fill="#8C9099"/>
</svg>
