<svg width="154" height="162" viewBox="0 0 154 162" fill="none" xmlns="http://www.w3.org/2000/svg">
<circle cx="76.5" cy="80.5" r="70.5" fill="#FC7A1E"/>
<path d="M71.0361 100C69.5252 100 68.0146 99.3593 67.1513 98.078L55.0654 82.7017C53.3388 80.5661 53.7705 77.5763 55.9287 75.8678C58.0868 74.1592 61.1083 74.5864 62.8349 76.722L71.0361 87.1865L89.1651 63.9085C90.8917 61.7729 93.9132 61.3457 96.0713 63.0542C98.2295 64.7627 98.6612 67.7525 96.9346 69.8881L74.9208 98.078C73.8418 99.1457 72.5469 100 71.0361 100Z" fill="white"/>
<circle cx="106.5" cy="91.5" r="2.5" fill="white"/>
<circle cx="37.5" cy="63.5" r="4.5" fill="white"/>
<circle cx="99" cy="40" r="2" fill="white"/>
<circle cx="55.5" cy="114.5" r="2.5" fill="white"/>
<circle cx="78" cy="64" r="1" fill="white"/>
</svg>
