<svg width="32" height="94" viewBox="0 0 32 94" fill="none" xmlns="http://www.w3.org/2000/svg">
<path d="M29.4819 8.62407L19.4819 3.12407C19.3343 3.04284 19.1685 3.00024 18.9999 3.00024C18.8314 3.00024 18.6656 3.04284 18.5179 3.12407L8.51793 8.62407C8.36115 8.7104 8.2304 8.83722 8.13934 8.99131C8.04828 9.14539 8.00024 9.32109 8.00024 9.50007C8.00024 9.67905 8.04828 9.85475 8.13934 10.0088C8.2304 10.1629 8.36115 10.2897 8.51793 10.3761L17.9999 15.5911V26.3101L14.9639 24.6401L13.9999 26.3911L18.5179 28.8761C18.6655 28.9575 18.8314 29.0002 18.9999 29.0002C19.1685 29.0002 19.3343 28.9575 19.4819 28.8761L29.4819 23.3761C29.6388 23.2898 29.7696 23.163 29.8607 23.0089C29.9518 22.8548 29.9999 22.6791 29.9999 22.5001V9.50007C29.9999 9.32106 29.9518 9.14534 29.8607 8.99125C29.7696 8.83716 29.6388 8.71036 29.4819 8.62407ZM18.9999 5.14207L26.9249 9.50007L18.9999 13.8581L11.0749 9.50007L18.9999 5.14207ZM27.9999 21.9091L19.9999 26.3091V15.5901L27.9999 11.1901V21.9091Z" fill="#8C9099"/>
<path d="M10 16H2V14H10V16ZM12 24H4V22H12V24ZM14 20H6V18H14V20Z" fill="#8C9099"/>
<circle cx="16" cy="53.6667" r="3" transform="rotate(90 16 53.6667)" fill="#8C9099"/>
<circle cx="16" cy="72" r="3" transform="rotate(90 16 72)" fill="#8C9099"/>
<circle cx="16" cy="90.3333" r="3" transform="rotate(90 16 90.3333)" fill="#8C9099"/>
</svg>
