<svg width="22" height="77" viewBox="0 0 22 77" fill="none" xmlns="http://www.w3.org/2000/svg">
<path d="M6.28446 1.70711C6.67498 1.31658 6.67498 0.683417 6.28446 0.292893C5.89393 -0.0976311 5.26077 -0.0976311 4.87024 0.292893C4.20273 0.960411 3.90434 1.7019 4.02648 2.49581C4.12352 3.12661 4.48523 3.66646 4.70883 4.00018L4.7453 4.0547C5.02691 4.47711 5.129 4.66221 5.15148 4.80831L5.15216 4.81182C5.15812 4.84026 5.18667 4.97647 4.87024 5.29289C4.47972 5.68342 4.47972 6.31658 4.87024 6.70711C5.26077 7.09763 5.89393 7.09763 6.28446 6.70711C6.95197 6.03959 7.25036 5.2981 7.12822 4.50419C7.03118 3.87339 6.66947 3.33354 6.44587 2.99982L6.4094 2.9453C6.12779 2.52289 6.0257 2.33779 6.00322 2.19169L6.00254 2.18818C5.99658 2.15974 5.96803 2.02353 6.28446 1.70711Z" fill="#8C9099"/>
<path fill-rule="evenodd" clip-rule="evenodd" d="M0 10C0 9.44771 0.447715 9 1 9H21C21.5523 9 22 9.44771 22 10C22 10.5523 21.5523 11 21 11H19.7467L17.7164 17.8523C17.3389 19.1261 16.1686 20 14.84 20H7.16002C5.83142 20 4.66106 19.1261 4.28362 17.8523L2.25332 11H1C0.447715 11 0 10.5523 0 10ZM4.33927 11H17.6607L15.7988 17.2841C15.673 17.7087 15.2828 18 14.84 18H7.16002C6.71715 18 6.32703 17.7087 6.20122 17.2841L4.33927 11Z" fill="#8C9099"/>
<path d="M11.2845 0.292893C11.675 0.683417 11.675 1.31658 11.2845 1.70711C10.968 2.02353 10.9966 2.15974 11.0025 2.18818L11.0032 2.19169C11.0257 2.33779 11.1278 2.52289 11.4094 2.9453L11.4459 2.99982C11.6695 3.33354 12.0312 3.87339 12.1282 4.50419C12.2504 5.2981 11.952 6.03959 11.2845 6.70711C10.8939 7.09763 10.2608 7.09763 9.87024 6.70711C9.47972 6.31658 9.47972 5.68342 9.87024 5.29289C10.1867 4.97647 10.1581 4.84026 10.1522 4.81182L10.1515 4.80831C10.129 4.66221 10.0269 4.47711 9.7453 4.0547L9.70883 4.00018C9.48523 3.66646 9.12352 3.12661 9.02648 2.49581C8.90434 1.7019 9.20273 0.960411 9.87024 0.292893C10.2608 -0.0976311 10.8939 -0.0976311 11.2845 0.292893Z" fill="#8C9099"/>
<path d="M16.2845 1.70711C16.675 1.31658 16.675 0.683417 16.2845 0.292893C15.8939 -0.0976311 15.2608 -0.0976311 14.8702 0.292893C14.2027 0.960411 13.9043 1.7019 14.0265 2.49581C14.1235 3.12661 14.4852 3.66646 14.7088 4.00018L14.7453 4.0547C15.0269 4.47711 15.129 4.66221 15.1515 4.80831L15.1522 4.81182C15.1581 4.84026 15.1867 4.97647 14.8702 5.29289C14.4797 5.68342 14.4797 6.31658 14.8702 6.70711C15.2608 7.09763 15.8939 7.09763 16.2845 6.70711C16.952 6.03959 17.2504 5.2981 17.1282 4.50419C17.0312 3.87339 16.6695 3.33354 16.4459 2.99982L16.4094 2.9453C16.1278 2.52289 16.0257 2.33779 16.0032 2.19169L16.0025 2.18818C15.9966 2.15974 15.968 2.02353 16.2845 1.70711Z" fill="#8C9099"/>
<circle cx="11" cy="39.5" r="3" transform="rotate(90 11 39.5)" fill="#8C9099"/>
<circle cx="11" cy="56.75" r="3" transform="rotate(90 11 56.75)" fill="#8C9099"/>
<circle cx="11" cy="74" r="3" transform="rotate(90 11 74)" fill="#8C9099"/>
</svg>
