<svg width="22" height="136" viewBox="0 0 22 136" fill="none" xmlns="http://www.w3.org/2000/svg">
<circle cx="11" cy="41" r="3" transform="rotate(90 11 41)" fill="#8C9099"/>
<circle cx="11" cy="59.3333" r="3" transform="rotate(90 11 59.3333)" fill="#8C9099"/>
<circle cx="11" cy="77.6665" r="3" transform="rotate(90 11 77.6665)" fill="#8C9099"/>
<circle cx="11" cy="96" r="3" transform="rotate(90 11 96)" fill="#8C9099"/>
<circle cx="11" cy="114.333" r="3" transform="rotate(90 11 114.333)" fill="#8C9099"/>
<circle cx="11" cy="133" r="3" transform="rotate(90 11 133)" fill="#8C9099"/>
<path d="M14.6666 0.916748C14.9097 0.916748 15.1429 1.01333 15.3148 1.18523C15.4867 1.35714 15.5833 1.5903 15.5833 1.83341V2.75008H20.1666V8.25008H18.3158L20.833 15.1663C21.0124 15.6316 21.095 16.1286 21.0758 16.6269C21.0566 17.1252 20.9359 17.6144 20.7211 18.0644C20.5064 18.5145 20.2021 18.9161 19.8269 19.2445C19.4516 19.573 19.0133 19.8214 18.5388 19.9747C18.0643 20.128 17.5634 20.1828 17.067 20.1359C16.5705 20.089 16.0888 19.9413 15.6514 19.7019C15.2139 19.4625 14.8299 19.1363 14.5229 18.7434C14.2158 18.3505 13.9921 17.8991 13.8654 17.4167H9.96775C9.75941 18.2213 9.28409 18.9312 8.6196 19.4303C7.95512 19.9294 7.14085 20.1881 6.31015 20.164C5.47944 20.14 4.68153 19.8346 4.04706 19.2978C3.41258 18.7611 2.97916 18.0248 2.81775 17.2096C2.52069 17.0544 2.27184 16.8208 2.09827 16.5341C1.9247 16.2474 1.83304 15.9186 1.83325 15.5834V6.41675C1.83325 6.17363 1.92983 5.94047 2.10174 5.76857C2.27365 5.59666 2.5068 5.50008 2.74992 5.50008H9.16658C9.4097 5.50008 9.64286 5.59666 9.81477 5.76857C9.98667 5.94047 10.0833 6.17363 10.0833 6.41675V11.0001C10.0833 11.2432 10.1798 11.4764 10.3517 11.6483C10.5236 11.8202 10.7568 11.9167 10.9999 11.9167H12.8333C13.0764 11.9167 13.3095 11.8202 13.4814 11.6483C13.6533 11.4764 13.7499 11.2432 13.7499 11.0001V2.75008H10.9999V0.916748H14.6666ZM17.4166 14.6667C17.0267 14.6669 16.647 14.7913 16.3327 15.0219C16.0183 15.2525 15.7857 15.5773 15.6685 15.9492C15.5514 16.321 15.5558 16.7205 15.6812 17.0897C15.8066 17.4589 16.0464 17.7784 16.3658 18.002C16.6852 18.2256 17.0675 18.3415 17.4573 18.333C17.8471 18.3244 18.224 18.1919 18.5333 17.9545C18.8426 17.7171 19.0681 17.3874 19.1772 17.0131C19.2863 16.6388 19.2733 16.2394 19.1399 15.8731L19.1243 15.8327C18.99 15.4891 18.7552 15.194 18.4505 14.986C18.1459 14.778 17.7855 14.6667 17.4166 14.6667ZM6.41659 14.6667C5.93036 14.6667 5.46404 14.8599 5.12022 15.2037C4.77641 15.5475 4.58325 16.0139 4.58325 16.5001C4.58325 16.9863 4.77641 17.4526 5.12022 17.7964C5.46404 18.1403 5.93036 18.3334 6.41659 18.3334C6.90282 18.3334 7.36913 18.1403 7.71295 17.7964C8.05676 17.4526 8.24992 16.9863 8.24992 16.5001C8.24992 16.0139 8.05676 15.5475 7.71295 15.2037C7.36913 14.8599 6.90282 14.6667 6.41659 14.6667ZM8.24992 7.33341H3.66659V9.16675H8.24992V7.33341ZM18.3333 4.58341H15.5833V6.41675H18.3333V4.58341Z" fill="#8C9099"/>
</svg>
