<svg width="70" height="70" viewBox="0 0 70 70" fill="none" xmlns="http://www.w3.org/2000/svg">
<path d="M34.9999 5.83325C18.9291 5.83325 5.83325 18.9291 5.83325 34.9999C5.83325 51.0708 18.9291 64.1666 34.9999 64.1666C51.0708 64.1666 64.1666 51.0708 64.1666 34.9999C64.1666 18.9291 51.0708 5.83325 34.9999 5.83325ZM48.9416 28.2916L32.4041 44.8291C31.9958 45.2374 31.4416 45.4707 30.8582 45.4707C30.2749 45.4707 29.7208 45.2374 29.3124 44.8291L21.0583 36.5749C20.2124 35.7291 20.2124 34.3291 21.0583 33.4832C21.9041 32.6374 23.3041 32.6374 24.1499 33.4832L30.8582 40.1916L45.8499 25.1999C46.6958 24.3541 48.0958 24.3541 48.9416 25.1999C49.7874 26.0458 49.7874 27.4166 48.9416 28.2916Z" fill="#2CF4B8"/>
</svg>
