<svg width="32" height="475" viewBox="0 0 32 475" fill="none" xmlns="http://www.w3.org/2000/svg">
<path d="M21.7071 7.70711C22.0976 7.31658 22.0976 6.68342 21.7071 6.29289C21.3166 5.90237 20.6834 5.90237 20.2929 6.29289L14 12.5858L11.7071 10.2929C11.3166 9.90237 10.6834 9.90237 10.2929 10.2929C9.90237 10.6834 9.90237 11.3166 10.2929 11.7071L13.2929 14.7071C13.6834 15.0976 14.3166 15.0976 14.7071 14.7071L21.7071 7.70711Z" fill="#8C9099"/>
<path fill-rule="evenodd" clip-rule="evenodd" d="M16 0C10.4772 0 6 4.47715 6 10C6 15.5228 10.4772 20 16 20C21.5228 20 26 15.5228 26 10C26 4.47715 21.5228 0 16 0ZM8 10C8 5.58172 11.5817 2 16 2C20.4183 2 24 5.58172 24 10C24 14.4183 20.4183 18 16 18C11.5817 18 8 14.4183 8 10Z" fill="#8C9099"/>
<path d="M29.4819 105.624L19.4819 100.124C19.3343 100.043 19.1685 100 18.9999 100C18.8314 100 18.6656 100.043 18.5179 100.124L8.51793 105.624C8.36115 105.71 8.2304 105.837 8.13934 105.991C8.04828 106.145 8.00024 106.321 8.00024 106.5C8.00024 106.679 8.04828 106.855 8.13934 107.009C8.2304 107.163 8.36115 107.29 8.51793 107.376L17.9999 112.591V123.31L14.9639 121.64L13.9999 123.391L18.5179 125.876C18.6655 125.957 18.8314 126 18.9999 126C19.1685 126 19.3343 125.957 19.4819 125.876L29.4819 120.376C29.6388 120.29 29.7696 120.163 29.8607 120.009C29.9518 119.855 29.9999 119.679 29.9999 119.5V106.5C29.9999 106.321 29.9518 106.145 29.8607 105.991C29.7696 105.837 29.6388 105.71 29.4819 105.624ZM18.9999 102.142L26.9249 106.5L18.9999 110.858L11.0749 106.5L18.9999 102.142ZM27.9999 118.909L19.9999 123.309V112.59L27.9999 108.19V118.909Z" fill="#8C9099"/>
<path d="M10 113H2V111H10V113ZM12 121H4V119H12V121ZM14 117H6V115H14V117Z" fill="#8C9099"/>
<circle cx="16" cy="150.667" r="3" transform="rotate(90 16 150.667)" fill="#8C9099"/>
<circle cx="16" cy="169" r="3" transform="rotate(90 16 169)" fill="#8C9099"/>
<circle cx="16" cy="187.333" r="3" transform="rotate(90 16 187.333)" fill="#8C9099"/>
<circle cx="16" cy="41.6667" r="3" transform="rotate(90 16 41.6667)" fill="#8C9099"/>
<circle cx="16" cy="60" r="3" transform="rotate(90 16 60)" fill="#8C9099"/>
<circle cx="16" cy="78.3333" r="3" transform="rotate(90 16 78.3333)" fill="#8C9099"/>
<circle cx="16" cy="247" r="3" transform="rotate(90 16 247)" fill="#8C9099"/>
<circle cx="16" cy="265.333" r="3" transform="rotate(90 16 265.333)" fill="#8C9099"/>
<circle cx="16" cy="283.667" r="3" transform="rotate(90 16 283.667)" fill="#8C9099"/>
<circle cx="16" cy="302" r="3" transform="rotate(90 16 302)" fill="#8C9099"/>
<circle cx="16" cy="320.333" r="3" transform="rotate(90 16 320.333)" fill="#8C9099"/>
<circle cx="16" cy="339" r="3" transform="rotate(90 16 339)" fill="#8C9099"/>
<path d="M11.2845 359.707C11.675 359.317 11.675 358.683 11.2845 358.293C10.8939 357.902 10.2608 357.902 9.87024 358.293C9.20273 358.96 8.90434 359.702 9.02648 360.496C9.12352 361.127 9.48523 361.666 9.70883 362L9.7453 362.055C10.0269 362.477 10.129 362.662 10.1515 362.808L10.1522 362.812C10.1581 362.84 10.1867 362.976 9.87024 363.293C9.47972 363.683 9.47972 364.317 9.87024 364.707C10.2608 365.098 10.8939 365.098 11.2845 364.707C11.952 364.04 12.2504 363.298 12.1282 362.504C12.0312 361.873 11.6695 361.334 11.4459 361L11.4094 360.945C11.1278 360.523 11.0257 360.338 11.0032 360.192L11.0025 360.188C10.9966 360.16 10.968 360.024 11.2845 359.707Z" fill="#8C9099"/>
<path fill-rule="evenodd" clip-rule="evenodd" d="M5 368C5 367.448 5.44772 367 6 367H26C26.5523 367 27 367.448 27 368C27 368.552 26.5523 369 26 369H24.7467L22.7164 375.852C22.3389 377.126 21.1686 378 19.84 378H12.16C10.8314 378 9.66106 377.126 9.28362 375.852L7.25332 369H6C5.44772 369 5 368.552 5 368ZM9.33927 369H22.6607L20.7988 375.284C20.673 375.709 20.2828 376 19.84 376H12.16C11.7172 376 11.327 375.709 11.2012 375.284L9.33927 369Z" fill="#8C9099"/>
<path d="M16.2845 358.293C16.675 358.683 16.675 359.317 16.2845 359.707C15.968 360.024 15.9966 360.16 16.0025 360.188L16.0032 360.192C16.0257 360.338 16.1278 360.523 16.4094 360.945L16.4459 361C16.6695 361.334 17.0312 361.873 17.1282 362.504C17.2504 363.298 16.952 364.04 16.2845 364.707C15.8939 365.098 15.2608 365.098 14.8702 364.707C14.4797 364.317 14.4797 363.683 14.8702 363.293C15.1867 362.976 15.1581 362.84 15.1522 362.812L15.1515 362.808C15.129 362.662 15.0269 362.477 14.7453 362.055L14.7088 362C14.4852 361.666 14.1235 361.127 14.0265 360.496C13.9043 359.702 14.2027 358.96 14.8702 358.293C15.2608 357.902 15.8939 357.902 16.2845 358.293Z" fill="#8C9099"/>
<path d="M21.2845 359.707C21.675 359.317 21.675 358.683 21.2845 358.293C20.8939 357.902 20.2608 357.902 19.8702 358.293C19.2027 358.96 18.9043 359.702 19.0265 360.496C19.1235 361.127 19.4852 361.666 19.7088 362L19.7453 362.055C20.0269 362.477 20.129 362.662 20.1515 362.808L20.1522 362.812C20.1581 362.84 20.1867 362.976 19.8702 363.293C19.4797 363.683 19.4797 364.317 19.8702 364.707C20.2608 365.098 20.8939 365.098 21.2845 364.707C21.952 364.04 22.2504 363.298 22.1282 362.504C22.0312 361.873 21.6695 361.334 21.4459 361L21.4094 360.945C21.1278 360.523 21.0257 360.338 21.0032 360.192L21.0025 360.188C20.9966 360.16 20.968 360.024 21.2845 359.707Z" fill="#8C9099"/>
<circle cx="16" cy="397.5" r="3" transform="rotate(90 16 397.5)" fill="#8C9099"/>
<circle cx="16" cy="414.75" r="3" transform="rotate(90 16 414.75)" fill="#8C9099"/>
<circle cx="16" cy="432" r="3" transform="rotate(90 16 432)" fill="#8C9099"/>
<path d="M27 457V459.42C27 461 26 462 24.42 462H21V455.01C21 453.9 21.91 453 23.02 453C24.11 453.01 25.11 453.45 25.83 454.17C26.55 454.9 27 455.9 27 457Z" stroke="#FC7A1E" stroke-width="2" stroke-miterlimit="10" stroke-linecap="round" stroke-linejoin="round"/>
<path d="M7 458V472C7 472.83 7.94 473.3 8.6 472.8L10.31 471.52C10.71 471.22 11.27 471.26 11.63 471.62L13.29 473.29C13.68 473.68 14.32 473.68 14.71 473.29L16.39 471.61C16.74 471.26 17.3 471.22 17.69 471.52L19.4 472.8C20.06 473.29 21 472.82 21 472V455C21 453.9 21.9 453 23 453H12H11C8 453 7 454.79 7 457V458Z" stroke="#FC7A1E" stroke-width="2" stroke-miterlimit="10" stroke-linecap="round" stroke-linejoin="round"/>
<path d="M14 464.01H17" stroke="#FC7A1E" stroke-width="2" stroke-linecap="round" stroke-linejoin="round"/>
<path d="M14 460.01H17" stroke="#FC7A1E" stroke-width="2" stroke-linecap="round" stroke-linejoin="round"/>
<path d="M10.9956 464H11.0046" stroke="#FC7A1E" stroke-width="2" stroke-linecap="round" stroke-linejoin="round"/>
<path d="M10.9956 460H11.0046" stroke="#FC7A1E" stroke-width="2" stroke-linecap="round" stroke-linejoin="round"/>
<path d="M19.6666 206.917C19.9097 206.917 20.1429 207.013 20.3148 207.185C20.4867 207.357 20.5833 207.59 20.5833 207.833V208.75H25.1666V214.25H23.3158L25.833 221.166C26.0124 221.632 26.095 222.129 26.0758 222.627C26.0566 223.125 25.9359 223.614 25.7211 224.064C25.5064 224.515 25.2021 224.916 24.8269 225.245C24.4516 225.573 24.0133 225.821 23.5388 225.975C23.0643 226.128 22.5634 226.183 22.067 226.136C21.5705 226.089 21.0888 225.941 20.6514 225.702C20.2139 225.462 19.8299 225.136 19.5229 224.743C19.2158 224.35 18.9921 223.899 18.8654 223.417H14.9678C14.7594 224.221 14.2841 224.931 13.6196 225.43C12.9551 225.929 12.1409 226.188 11.3101 226.164C10.4794 226.14 9.68153 225.835 9.04706 225.298C8.41258 224.761 7.97916 224.025 7.81775 223.21C7.52069 223.054 7.27184 222.821 7.09827 222.534C6.9247 222.247 6.83304 221.919 6.83325 221.583V212.417C6.83325 212.174 6.92983 211.94 7.10174 211.769C7.27365 211.597 7.5068 211.5 7.74992 211.5H14.1666C14.4097 211.5 14.6429 211.597 14.8148 211.769C14.9867 211.94 15.0833 212.174 15.0833 212.417V217C15.0833 217.243 15.1798 217.476 15.3517 217.648C15.5236 217.82 15.7568 217.917 15.9999 217.917H17.8333C18.0764 217.917 18.3095 217.82 18.4814 217.648C18.6533 217.476 18.7499 217.243 18.7499 217V208.75H15.9999V206.917H19.6666ZM22.4166 220.667C22.0267 220.667 21.647 220.791 21.3327 221.022C21.0183 221.252 20.7857 221.577 20.6685 221.949C20.5514 222.321 20.5558 222.721 20.6812 223.09C20.8066 223.459 21.0464 223.778 21.3658 224.002C21.6852 224.226 22.0675 224.342 22.4573 224.333C22.8471 224.324 23.224 224.192 23.5333 223.954C23.8426 223.717 24.0681 223.387 24.1772 223.013C24.2863 222.639 24.2733 222.239 24.1399 221.873L24.1243 221.833C23.99 221.489 23.7552 221.194 23.4505 220.986C23.1459 220.778 22.7855 220.667 22.4166 220.667ZM11.4166 220.667C10.9304 220.667 10.464 220.86 10.1202 221.204C9.77641 221.548 9.58325 222.014 9.58325 222.5C9.58325 222.986 9.77641 223.453 10.1202 223.796C10.464 224.14 10.9304 224.333 11.4166 224.333C11.9028 224.333 12.3691 224.14 12.7129 223.796C13.0568 223.453 13.2499 222.986 13.2499 222.5C13.2499 222.014 13.0568 221.548 12.7129 221.204C12.3691 220.86 11.9028 220.667 11.4166 220.667ZM13.2499 213.333H8.66659V215.167H13.2499V213.333ZM23.3333 210.583H20.5833V212.417H23.3333V210.583Z" fill="#8C9099"/>
</svg>
