<svg width="16" height="16" viewBox="0 0 16 16" fill="none" xmlns="http://www.w3.org/2000/svg">
<path d="M10.6666 0.666748C10.8434 0.666748 11.013 0.736986 11.138 0.86201C11.263 0.987034 11.3333 1.1566 11.3333 1.33341V2.00008H14.6666V6.00008H13.3206L15.1513 11.0301C15.2817 11.3685 15.3418 11.7299 15.3278 12.0923C15.3138 12.4547 15.2261 12.8105 15.0699 13.1378C14.9137 13.4651 14.6924 13.7572 14.4195 13.996C14.1466 14.2349 13.8279 14.4156 13.4827 14.5271C13.1376 14.6385 12.7734 14.6784 12.4123 14.6443C12.0513 14.6102 11.7009 14.5028 11.3828 14.3287C11.0647 14.1545 10.7854 13.9173 10.5621 13.6316C10.3387 13.3458 10.176 13.0175 10.0839 12.6667H7.24925C7.09773 13.2518 6.75204 13.7682 6.26878 14.1312C5.78552 14.4941 5.19333 14.6823 4.58918 14.6648C3.98503 14.6473 3.40472 14.4252 2.94329 14.0348C2.48186 13.6444 2.16664 13.109 2.04925 12.5161C1.83321 12.4032 1.65223 12.2333 1.52599 12.0248C1.39976 11.8163 1.3331 11.5772 1.33325 11.3334V4.66675C1.33325 4.48994 1.40349 4.32037 1.52851 4.19534C1.65354 4.07032 1.82311 4.00008 1.99992 4.00008H6.66658C6.8434 4.00008 7.01297 4.07032 7.13799 4.19534C7.26301 4.32037 7.33325 4.48994 7.33325 4.66675V8.00008C7.33325 8.17689 7.40349 8.34646 7.52851 8.47149C7.65354 8.59651 7.82311 8.66675 7.99992 8.66675H9.33325C9.51006 8.66675 9.67963 8.59651 9.80466 8.47149C9.92968 8.34646 9.99992 8.17689 9.99992 8.00008V2.00008H7.99992V0.666748H10.6666ZM12.6666 10.6667C12.383 10.6668 12.1069 10.7573 11.8783 10.925C11.6497 11.0927 11.4805 11.329 11.3953 11.5994C11.3101 11.8699 11.3133 12.1604 11.4045 12.4289C11.4957 12.6974 11.6701 12.9298 11.9024 13.0924C12.1347 13.255 12.4127 13.3393 12.6962 13.3331C12.9797 13.3269 13.2538 13.2305 13.4787 13.0578C13.7037 12.8852 13.8677 12.6454 13.9471 12.3732C14.0264 12.1009 14.0169 11.8105 13.9199 11.5441L13.9086 11.5147C13.8109 11.2648 13.6401 11.0502 13.4186 10.8989C13.197 10.7476 12.9349 10.6667 12.6666 10.6667ZM4.66659 10.6667C4.31296 10.6667 3.97382 10.8072 3.72378 11.0573C3.47373 11.3073 3.33325 11.6465 3.33325 12.0001C3.33325 12.3537 3.47373 12.6928 3.72378 12.9429C3.97382 13.1929 4.31296 13.3334 4.66659 13.3334C5.02021 13.3334 5.35935 13.1929 5.60939 12.9429C5.85944 12.6928 5.99992 12.3537 5.99992 12.0001C5.99992 11.6465 5.85944 11.3073 5.60939 11.0573C5.35935 10.8072 5.02021 10.6667 4.66659 10.6667ZM5.99992 5.33341H2.66659V6.66675H5.99992V5.33341ZM13.3333 3.33341H11.3333V4.66675H13.3333V3.33341Z" fill="white"/>
</svg>
