<svg width="10" height="11" viewBox="0 0 10 11" fill="none" xmlns="http://www.w3.org/2000/svg">
<path d="M4.32568 11.0001C4.03287 11.0002 3.7408 10.9716 3.4539 10.9147C2.90065 10.8046 2.37512 10.5896 1.90732 10.2822C1.21184 9.82586 0.667448 9.18331 0.340108 8.43238C0.229445 8.1781 0.14496 7.91378 0.0878898 7.64331C-0.0292966 7.0842 -0.0292966 6.50786 0.0878898 5.94875C0.201214 5.41105 0.422367 4.90029 0.738731 4.44563C1.20824 3.7697 1.86937 3.24061 2.64201 2.92247C2.90365 2.81492 3.17561 2.73281 3.4539 2.67734C4.02918 2.56345 4.62218 2.56345 5.19746 2.67734C5.75071 2.78748 6.27624 3.00242 6.74404 3.30989C7.43952 3.7662 7.98391 4.40875 8.31125 5.15968C8.42192 5.41397 8.5064 5.67828 8.56347 5.94875C8.67871 6.49895 8.68052 7.06591 8.5688 7.6168C8.47298 8.09063 8.29281 8.54458 8.03641 8.95822C7.65241 9.58141 7.10865 10.0971 6.45826 10.455C5.80787 10.8129 5.07308 11.0007 4.32568 11.0001ZM5.8157 4.82659C5.7456 4.82653 5.67619 4.83993 5.61144 4.86602C5.54669 4.8921 5.48787 4.93035 5.43837 4.97858L3.92639 6.44612C3.82623 6.54364 3.77003 6.67584 3.77015 6.81363C3.77028 6.95142 3.82672 7.08352 3.92706 7.18087C4.0274 7.27821 4.16341 7.33283 4.30519 7.33271C4.44696 7.33259 4.58288 7.27774 4.68304 7.18022L5.43837 6.44612L6.19369 5.71268C6.26919 5.64041 6.32079 5.5479 6.34188 5.44697C6.36297 5.34604 6.35259 5.24129 6.31206 5.14613C6.27154 5.05097 6.20272 4.96973 6.11441 4.9128C6.0261 4.85587 5.92233 4.82586 5.81636 4.82659H5.8157Z" fill="#FC7A1E"/>
<path d="M2.20825 0.549847C2.20825 0.404041 2.26785 0.264206 2.37393 0.161106C2.48001 0.0580052 2.62389 8.39233e-05 2.77391 8.39233e-05L6.16787 8.39233e-05C6.31789 8.39233e-05 6.46177 0.0580052 6.56785 0.161106C6.67393 0.264206 6.73353 0.404041 6.73353 0.549847C6.73353 0.695653 6.67393 0.835487 6.56785 0.938588C6.46177 1.04169 6.31789 1.09961 6.16787 1.09961L2.77391 1.09961C2.62389 1.09961 2.48001 1.04169 2.37393 0.938588C2.26785 0.835487 2.20825 0.695653 2.20825 0.549847V0.549847Z" fill="#FC7A1E"/>
<path d="M8.01423 1.5766C8.12381 1.47011 8.27243 1.41028 8.42739 1.41028C8.58235 1.41028 8.73097 1.47011 8.84055 1.5766L9.58687 2.30195C9.69644 2.40844 9.758 2.55289 9.758 2.70349C9.758 2.8541 9.69644 2.99854 9.58687 3.10504C9.47729 3.21154 9.32867 3.27137 9.17371 3.27137C9.01874 3.27137 8.87013 3.21154 8.76055 3.10504L8.01423 2.3797C7.90466 2.2732 7.8431 2.12876 7.8431 1.97815C7.8431 1.82754 7.90466 1.6831 8.01423 1.5766Z" fill="#FC7A1E"/>
</svg>
