<svg width="32" height="32" viewBox="0 0 32 32" fill="none" xmlns="http://www.w3.org/2000/svg">
<circle cx="16" cy="16" r="16" fill="#FC7A1E"/>
<path d="M18.8129 10.6682C18.9783 10.5028 19.1746 10.3716 19.3908 10.2821C19.6069 10.1926 19.8385 10.1465 20.0724 10.1465C20.3064 10.1465 20.538 10.1926 20.7541 10.2821C20.9703 10.3716 21.1666 10.5028 21.332 10.6682C21.4974 10.8336 21.6287 11.03 21.7182 11.2461C21.8077 11.4622 21.8538 11.6939 21.8538 11.9278C21.8538 12.1617 21.8077 12.3934 21.7182 12.6095C21.6287 12.8256 21.4974 13.022 21.332 13.1874L12.8298 21.6896L9.36597 22.6343L10.3107 19.1704L18.8129 10.6682Z" stroke="white" stroke-width="1.31125" stroke-linecap="round" stroke-linejoin="round"/>
</svg>
