<svg width="18" height="13" viewBox="0 0 18 13" fill="none" xmlns="http://www.w3.org/2000/svg">
<path d="M11.5802 6.06257C11.5802 6.79342 11.2899 7.49434 10.7731 8.01113C10.2563 8.52792 9.55538 8.81825 8.82453 8.81825C8.09368 8.81825 7.39276 8.52792 6.87597 8.01113C6.35918 7.49434 6.06885 6.79342 6.06885 6.06257C6.06885 5.33171 6.35918 4.6308 6.87597 4.11401C7.39276 3.59721 8.09368 3.30688 8.82453 3.30688C9.55538 3.30688 10.2563 3.59721 10.7731 4.11401C11.2899 4.6308 11.5802 5.33171 11.5802 6.06257Z" fill="#D0D2D1"/>
<path fill-rule="evenodd" clip-rule="evenodd" d="M0.00634766 6.0625C0.00634766 6.0625 3.31317 0 8.82453 0C14.3359 0 17.6427 6.0625 17.6427 6.0625C17.6427 6.0625 14.3359 12.125 8.82453 12.125C3.31317 12.125 0.00634766 6.0625 0.00634766 6.0625ZM8.82453 9.92045C9.84772 9.92045 10.829 9.51399 11.5525 8.79049C12.276 8.06698 12.6825 7.08569 12.6825 6.0625C12.6825 5.03931 12.276 4.05802 11.5525 3.33451C10.829 2.61101 9.84772 2.20455 8.82453 2.20455C7.80134 2.20455 6.82005 2.61101 6.09654 3.33451C5.37304 4.05802 4.96658 5.03931 4.96658 6.0625C4.96658 7.08569 5.37304 8.06698 6.09654 8.79049C6.82005 9.51399 7.80134 9.92045 8.82453 9.92045Z" fill="#D0D2D1"/>
</svg>
