<svg width="13" height="11" viewBox="0 0 13 11" fill="none" xmlns="http://www.w3.org/2000/svg">
<path d="M4.71228 5.77198C4.71806 5.12394 4.88867 4.48854 5.20741 3.92799C5.52615 3.36744 5.98208 2.90098 6.53058 2.57424C6.63975 2.48622 6.7694 2.42855 6.90691 2.40686C7.04441 2.38518 7.18507 2.4002 7.31519 2.45048C7.44531 2.50076 7.56043 2.58459 7.64936 2.69377C7.7383 2.80296 7.79801 2.93378 7.82266 3.07351C7.9569 3.47554 8.11932 3.868 8.24954 4.2714C8.28425 4.39249 8.34972 4.50206 8.4393 4.58902C8.52888 4.67598 8.63941 4.73724 8.75967 4.76657C9.15837 4.88369 9.55706 4.99944 9.95375 5.12135C10.0059 5.1314 10.0555 5.15196 10.0998 5.18184C10.144 5.21171 10.182 5.2503 10.2114 5.29533C10.2408 5.34036 10.2612 5.39093 10.2712 5.44409C10.2813 5.49724 10.2808 5.55191 10.2699 5.60488C10.2638 5.66204 10.2458 5.71722 10.2171 5.76668C10.1883 5.81613 10.1495 5.85871 10.1033 5.89156C10.057 5.92441 10.0044 5.94676 9.94896 5.95709C9.89352 5.96742 9.83657 5.96549 9.78193 5.95144C9.38256 5.8946 8.98452 5.8309 8.5885 5.75282C8.29156 5.70741 8.00998 5.58864 7.76829 5.40684C7.5266 5.22504 7.33215 4.98572 7.20179 4.70972C7.13467 4.57274 7.05277 4.44194 6.96484 4.28578C6.65616 4.5927 6.4488 4.99006 6.3715 5.4227C6.32251 5.62132 6.37148 5.71582 6.56479 5.78363C7.13935 5.9843 7.70988 6.19868 8.27772 6.41921C8.39083 6.44695 8.49528 6.50331 8.58142 6.58308C8.66755 6.66285 8.73262 6.76347 8.77061 6.87565C8.80859 6.98784 8.81826 7.10799 8.79875 7.225C8.77924 7.34201 8.73117 7.45212 8.65897 7.54518C8.37437 8.02461 8.06967 8.4917 7.76829 8.96085C7.55485 9.29302 7.55082 9.29028 7.76829 9.62724C7.78172 9.64779 7.8052 9.66902 7.8052 9.68957C7.8052 9.79984 7.83808 9.94505 7.78304 10.0108C7.74255 10.0515 7.69337 10.0821 7.63933 10.1002C7.58529 10.1183 7.52787 10.1233 7.47161 10.1149C7.18198 10.0312 6.8985 9.92683 6.62321 9.80258C6.56966 9.78476 6.52074 9.75487 6.48003 9.71515C6.43932 9.67543 6.40786 9.62689 6.38801 9.57311C6.36817 9.51932 6.36043 9.46167 6.36536 9.40441C6.37028 9.34716 6.38776 9.29178 6.41649 9.24235C6.62725 8.72502 6.83864 8.20771 7.05075 7.69039C7.0682 7.64724 7.08097 7.60271 7.09909 7.5534C6.65005 7.41642 6.21109 7.28355 5.77682 7.14246C5.58569 7.08833 5.40158 7.01107 5.22843 6.91234C5.04578 6.79125 4.90041 6.61994 4.80908 6.41817C4.71775 6.2164 4.6842 5.99238 4.71228 5.77198Z" fill="#FC7A1E"/>
<path d="M3.6803 6.3924C3.28899 6.3972 2.897 6.3883 2.50568 6.39652C2.3435 6.4001 2.18206 6.42006 2.02374 6.45611C1.69093 6.52785 1.38409 6.69219 1.1372 6.93094C0.890308 7.16969 0.713012 7.47353 0.624942 7.80877L0.484014 8.23957L0.399457 8.22929C0.275019 7.93353 0.22878 7.60963 0.265411 7.28994C0.302041 6.97026 0.4202 6.66596 0.608146 6.40747C0.230924 6.3246 0.0436878 6.14312 0.0369757 5.83081C0.0190767 5.02309 0.00702504 4.21514 0.000760384 3.40697C-0.00320383 3.33099 0.00836197 3.25501 0.0347635 3.18385C0.061165 3.11269 0.101778 3.04792 0.154061 2.99367C0.206344 2.93942 0.269131 2.89687 0.338415 2.86874C0.407699 2.84061 0.481927 2.82751 0.556444 2.83028C1.38159 2.82252 2.20681 2.82252 3.03195 2.83028C3.19409 2.83021 3.35074 2.89004 3.47301 2.99869C3.59528 3.10733 3.67489 3.25747 3.6971 3.42135C3.84745 4.21948 3.99577 5.01852 4.14209 5.81847C4.16194 5.88869 4.16474 5.96279 4.15028 6.03436C4.13582 6.10594 4.10454 6.17285 4.05909 6.22933C4.01364 6.28581 3.95539 6.33017 3.8894 6.35858C3.82341 6.38699 3.75167 6.3986 3.6803 6.3924Z" fill="#FC7A1E"/>
<path d="M10.1254 7.15318C10.2496 7.08948 10.2999 7.02852 10.2469 6.88675C10.2091 6.7752 10.1804 6.66066 10.161 6.5443C10.1248 6.36212 10.1851 6.23747 10.3194 6.20186C10.4664 6.16145 10.5832 6.24364 10.6322 6.42719C10.6765 6.59225 10.7161 6.75937 10.7617 6.9436C10.9249 6.93432 11.0885 6.93432 11.2517 6.9436C11.6557 6.99454 12.0346 7.17042 12.3377 7.44762C12.6408 7.72481 12.8535 8.09004 12.9472 8.4942C13.0401 8.89923 13.0098 9.32353 12.8604 9.71055C12.711 10.0976 12.4495 10.4289 12.1109 10.6605C11.7721 10.8891 11.3729 11.0064 10.9669 10.9967C10.5609 10.987 10.1675 10.8508 9.8395 10.6064C9.56593 10.3998 9.3487 10.1252 9.20847 9.8087C9.06825 9.49225 9.00968 9.14447 9.03834 8.7984C9.06699 8.45233 9.1819 8.11949 9.37218 7.83153C9.56246 7.54357 9.82174 7.31005 10.1254 7.15318ZM9.89521 9.39277C9.99941 9.67745 10.2037 9.91234 10.4684 10.0516C10.7331 10.1909 11.0392 10.2246 11.3269 10.1462C11.6212 10.0628 11.8733 9.86836 12.0322 9.60228C12.1911 9.33621 12.2449 9.01841 12.1827 8.71335C12.1261 8.42966 11.9703 8.17663 11.7445 8.00137C11.5186 7.82611 11.2381 7.74057 10.955 7.76067C11.0081 7.97025 11.0557 8.1764 11.1161 8.37707C11.1262 8.412 11.1833 8.43598 11.2262 8.4579C11.2959 8.4885 11.3585 8.53383 11.4098 8.59091C11.4611 8.64799 11.4999 8.71552 11.5238 8.78904C11.5476 8.86255 11.5559 8.94039 11.5481 9.01742C11.5403 9.09446 11.5166 9.16892 11.4786 9.23593C11.4425 9.29995 11.394 9.35588 11.3362 9.40032C11.2784 9.44475 11.2123 9.4768 11.142 9.49452C11.0717 9.51224 10.9987 9.51528 10.9272 9.50344C10.8557 9.49161 10.7873 9.46514 10.7262 9.42565C10.663 9.38312 10.6092 9.32771 10.5681 9.26291C10.527 9.19811 10.4995 9.12534 10.4873 9.04915C10.4751 8.97297 10.4786 8.89503 10.4974 8.82026C10.5162 8.7455 10.55 8.67552 10.5966 8.61474C10.6312 8.55594 10.6443 8.48655 10.6335 8.41885C10.6006 8.23873 10.5496 8.06272 10.4993 7.87095C10.2306 8.0019 10.0197 8.23066 9.90787 8.51226C9.79609 8.79387 9.79157 9.10794 9.89521 9.39277Z" fill="#FC7A1E"/>
<path d="M2.94559 6.93791C3.20722 6.93445 3.46687 6.98426 3.70939 7.08445C3.95192 7.18464 4.17242 7.33318 4.35799 7.52139C4.54357 7.7096 4.69054 7.93368 4.7902 8.18053C4.88986 8.42739 4.94023 8.69205 4.93842 8.95902C4.94072 9.22586 4.89126 9.49053 4.7929 9.73778C4.69454 9.98504 4.5492 10.21 4.36528 10.3997C4.18136 10.5894 3.96251 10.7401 3.72127 10.8431C3.48004 10.9462 3.2212 10.9995 2.95969 11C2.69811 11.0004 2.43909 10.948 2.19744 10.8458C1.9558 10.7436 1.73628 10.5937 1.55163 10.4046C1.36698 10.2156 1.22079 9.99112 1.12147 9.7442C1.02215 9.49728 0.971684 9.23278 0.972923 8.96588C0.971672 8.43025 1.17864 7.91595 1.54844 7.53579C1.91823 7.15563 2.42066 6.94063 2.94559 6.93791ZM2.96034 10.1898C3.27717 10.1862 3.57998 10.0558 3.80345 9.82657C4.02693 9.59739 4.1532 9.28779 4.15512 8.9645C4.15284 8.64062 4.02569 8.33068 3.80124 8.10165C3.57679 7.87263 3.27308 7.74294 2.95567 7.74061C2.79872 7.74122 2.64342 7.77357 2.4988 7.83581C2.35418 7.89805 2.22311 7.98894 2.11313 8.1032C2.00315 8.21746 1.91645 8.35283 1.85807 8.50149C1.79969 8.65016 1.7708 8.80915 1.77302 8.96929C1.77088 9.12924 1.79996 9.28804 1.85864 9.43639C1.91732 9.58473 2.00441 9.71965 2.11477 9.83328C2.22513 9.94691 2.35649 10.037 2.50134 10.0982C2.64619 10.1594 2.8016 10.1905 2.95838 10.1898H2.96034Z" fill="#FC7A1E"/>
<path d="M9.917 1.38877C9.52321 1.31152 9.13429 1.2102 8.75241 1.08536C8.50138 1.00934 8.36714 1.09016 8.40271 1.35453C8.4405 1.57886 8.48956 1.80105 8.54971 2.02023C8.56582 2.1057 8.60555 2.18472 8.66417 2.24793C8.72279 2.31115 8.7979 2.35597 8.88064 2.3771C9.22229 2.47025 9.56458 2.56065 9.90958 2.63941C10.0707 2.67571 10.111 2.73119 10.0083 2.86954C9.94443 2.97226 9.8504 3.05175 9.73961 3.09665C9.62882 3.14155 9.50694 3.14955 9.39143 3.11952C8.97084 3.0185 8.55789 2.88688 8.15572 2.72569C7.89168 2.61222 7.66897 2.41744 7.51868 2.16855C7.36838 1.91966 7.29797 1.62911 7.31736 1.33743C7.34673 1.16856 7.39053 1.00264 7.44825 0.841571C7.55906 0.576946 7.74782 0.354047 7.98837 0.203832C8.22892 0.0536171 8.50932 -0.0164664 8.79068 0.00326365C9.09345 0.0199584 9.38471 0.12724 9.6281 0.311766C9.87148 0.496292 10.0562 0.749861 10.1593 1.04084C10.2593 1.32028 10.1982 1.43465 9.917 1.38877Z" fill="#FC7A1E"/>
<path d="M11.7318 6.51125C11.5643 6.46492 11.4026 6.39895 11.2499 6.31468C11.1233 6.24729 11.0175 6.14533 10.9444 6.02016C10.8713 5.89499 10.8336 5.75152 10.8358 5.60581C10.8344 5.38558 10.8997 5.17031 11.0229 4.98945C11.146 4.8086 11.321 4.67104 11.5237 4.59561C11.5687 4.55999 11.6211 4.53543 11.6768 4.52384C11.7326 4.51225 11.7902 4.51393 11.8452 4.52877C11.9002 4.54361 11.9511 4.57121 11.994 4.60941C12.0368 4.64761 12.0705 4.6954 12.0923 4.74903C12.2698 5.04271 12.3554 5.38455 12.3379 5.72911C12.2993 5.92309 12.2477 6.11416 12.1836 6.30099C12.1716 6.34793 12.1494 6.39154 12.1188 6.42867C12.0882 6.4658 12.0499 6.49551 12.0067 6.51564C11.9634 6.53578 11.9163 6.54583 11.8688 6.54507C11.8212 6.54431 11.7744 6.53276 11.7318 6.51125Z" fill="#FC7A1E"/>
<path d="M8.6798 1.20737C8.708 1.19847 8.7926 1.27586 8.7973 1.32174C8.802 1.36763 8.74894 1.43202 8.6939 1.54091C8.61805 1.44023 8.54557 1.38543 8.55027 1.33543C8.55496 1.28544 8.62544 1.22107 8.6798 1.20737Z" fill="#FC7A1E"/>
<path d="M2.92806 8.41561C3.00176 8.41097 3.07564 8.42164 3.14519 8.44698C3.21473 8.47232 3.2785 8.51178 3.33265 8.563C3.38681 8.61423 3.4302 8.67615 3.46023 8.74499C3.49025 8.81383 3.5063 8.88817 3.50734 8.96351C3.50704 9.10953 3.45201 9.2499 3.35355 9.35585C3.25508 9.4618 3.12059 9.5253 2.97771 9.53334C2.90529 9.53544 2.83315 9.52291 2.7655 9.49647C2.69784 9.47004 2.63604 9.43022 2.58352 9.3793C2.531 9.32838 2.48881 9.26737 2.45947 9.19978C2.43014 9.13219 2.41417 9.05934 2.41252 8.98544C2.40901 8.91332 2.41961 8.84119 2.44374 8.77331C2.46786 8.70543 2.50504 8.64315 2.55304 8.59009C2.60104 8.53703 2.65891 8.49427 2.7233 8.46431C2.78769 8.43435 2.85732 8.4178 2.92806 8.41561Z" fill="#FC7A1E"/>
</svg>
