<svg width="32" height="32" viewBox="0 0 32 32" fill="none" xmlns="http://www.w3.org/2000/svg">
<path d="M16.1036 6.84057C18.2677 6.80727 20.3606 7.61351 21.943 9.09008L26.2054 4.92216C23.4707 2.35974 19.8508 0.954658 16.1036 1.00112C13.3038 1.00047 10.5589 1.7787 8.1761 3.24877C5.79326 4.71884 3.86634 6.8228 2.61084 9.32535L7.49472 13.1171C8.09189 11.3013 9.24399 9.71881 10.7885 8.59271C12.3331 7.4666 14.1922 6.85375 16.1036 6.84057Z" fill="#EA4335"/>
<path d="M30.6029 16.4401C30.6207 15.4019 30.5134 14.3652 30.2834 13.3526H16.1038V18.9583H24.428C24.2701 19.9411 23.915 20.8818 23.3842 21.7238C22.8534 22.5659 22.1577 23.2919 21.3391 23.8581L26.1053 27.5497C27.5907 26.1156 28.7589 24.3859 29.5343 22.4723C30.3098 20.5587 30.6753 18.5037 30.6073 16.4401H30.6029Z" fill="#4285F4"/>
<path d="M7.51233 19.0914C7.18212 18.1299 7.01188 17.1207 7.00841 16.1041C7.01443 15.0891 7.17856 14.0813 7.49491 13.1169L2.61103 9.32507C1.55176 11.4281 1 13.7501 1 16.1048C1 18.4596 1.55176 20.7816 2.61103 22.8846L7.51233 19.0914Z" fill="#FBBC05"/>
<path d="M16.104 31.2075C19.7829 31.3116 23.3619 30.0025 26.1055 27.5493L21.3393 23.8578C19.7939 24.8938 17.9637 25.4218 16.104 25.3681C14.1942 25.3567 12.3365 24.7443 10.7943 23.6177C9.25219 22.4911 8.10397 20.9075 7.51254 19.0915L2.62866 22.8848C3.88078 25.3862 5.80454 27.4897 8.18451 28.9596C10.5645 30.4295 13.3067 31.2079 16.104 31.2075Z" fill="#34A853"/>
</svg>
