<svg width="26" height="26" viewBox="0 0 26 26" fill="none" xmlns="http://www.w3.org/2000/svg">
<circle cx="13" cy="13" r="13" fill="white"/>
<path d="M17.9708 7.28859L17.9708 7.28859L17.9689 7.28641C17.5675 6.83279 16.9041 6.75812 16.4355 7.09539L16.4351 7.09572C15.937 7.45316 15.768 8.11666 16.0466 8.66837L16.048 8.6711C16.1099 8.79596 16.2099 8.92301 16.3295 9.04248L16.3312 9.04426C17.7677 10.4982 18.3446 12.2735 17.8341 14.3294L17.8341 14.3295C17.3466 16.2894 16.0916 17.5916 14.2444 18.1773L14.2439 18.1775C12.4432 18.7457 10.7473 18.3827 9.29385 17.1611C8.04104 16.1106 7.39943 14.6968 7.37738 13.0317C7.35838 11.7029 7.8042 10.528 8.62331 9.5252C8.69458 9.43739 8.77424 9.36624 8.83162 9.31544C8.83664 9.31099 8.8415 9.30669 8.84621 9.30253C8.90256 9.25268 8.93761 9.22167 8.96795 9.1882L8.96793 9.18818L8.97093 9.18495C9.3007 8.82898 9.38902 8.42543 9.24507 7.95198C9.09942 7.48526 8.79129 7.22026 8.32751 7.12616C7.98891 7.05821 7.68268 7.14281 7.38088 7.38516L7.37967 7.38612C6.77746 7.8659 6.35485 8.51596 5.96088 9.25146C5.29886 10.4885 5.00042 11.824 5.04793 13.2448L5.04794 13.2453C5.10383 14.9779 5.65228 16.5167 6.68685 17.8675C7.66908 19.1469 8.89547 20.0439 10.3793 20.4968L10.3796 20.4969C12.912 21.2721 15.2522 20.8673 17.372 19.2076L17.3722 19.2075C18.7442 18.1347 19.6461 16.7092 20.094 14.9676L20.0945 14.9658C20.2628 14.3235 20.3359 13.6622 20.339 12.9821C20.3074 10.8173 19.5663 8.97535 18.1076 7.44387L18.3972 7.168L18.1084 7.4447C18.077 7.41197 18.0257 7.35224 17.9948 7.31625C17.9833 7.30291 17.9747 7.29283 17.9708 7.28859Z" fill="#FC7A1E" stroke="white" stroke-width="0.8"/>
<path d="M11.1113 10.6564C11.1143 11.4968 11.726 12.1935 12.5222 12.273C13.3477 12.3585 14.0854 11.8024 14.2493 10.9651C14.2727 10.8459 14.2756 10.7237 14.2756 10.6014M11.1113 10.6564C11.1055 8.39514 11.1055 7.60051 11.1113 5.33921C11.1113 4.73722 11.3836 4.26968 11.8724 3.9641C12.3817 3.64324 12.9262 3.63102 13.4472 3.93049C13.98 4.23607 14.2669 4.72194 14.2698 5.36366M11.1113 10.6564L11.5113 10.6554C11.5113 10.6554 11.5113 10.6553 11.5113 10.6553C11.5137 11.3043 11.9832 11.8172 12.562 11.8749L12.5635 11.8751C13.1756 11.9385 13.7311 11.5298 13.8567 10.8882L13.8568 10.8879C13.8721 10.8101 13.8756 10.7218 13.8756 10.6025M11.1113 10.6564L11.5113 10.655L13.8756 10.6025M14.2698 5.36366C14.2716 6.08143 14.2711 6.50107 14.2705 7.00316C14.2702 7.28769 14.2698 7.5987 14.2698 8.00546V8.00552C14.2698 9.11473 14.2698 9.49219 14.2756 10.6014M14.2698 5.36366L13.8698 5.36548C13.8698 5.36536 13.8698 5.36524 13.8698 5.36512M14.2698 5.36366L13.8698 5.3647C13.8698 5.36484 13.8698 5.36498 13.8698 5.36512M14.2756 10.6014L13.8756 10.6035C13.8756 10.6032 13.8756 10.6028 13.8756 10.6025M14.2756 10.6014H13.8756C13.8756 10.6018 13.8756 10.6021 13.8756 10.6025M13.8756 10.6025C13.8698 9.49303 13.8698 9.11466 13.8698 8.00546C13.8698 7.59767 13.8702 7.28635 13.8705 7.00178C13.8711 6.50037 13.8716 6.08197 13.8698 5.36512M13.8756 10.6025L11.5113 5.34025L11.5113 5.33921C11.5113 4.87817 11.7099 4.5374 12.0844 4.30329L12.0856 4.30255L12.0856 4.30255C12.4703 4.0602 12.8561 4.05207 13.2479 4.27729L13.2482 4.27746C13.6555 4.51105 13.8674 4.86432 13.8698 5.36512" fill="#FC7A1E" stroke="white" stroke-width="0.8"/>
</svg>
