<svg width="24" height="24" viewBox="0 0 24 24" fill="none" xmlns="http://www.w3.org/2000/svg">
<rect width="24" height="24" rx="12" fill="#FC7A1E"/>
<path d="M18.6466 16.2199C18.6466 16.4599 18.5933 16.7066 18.4799 16.9466C18.3666 17.1866 18.2199 17.4133 18.0266 17.6266C17.6999 17.9866 17.3399 18.2466 16.9333 18.4133C16.5333 18.5799 16.0999 18.6666 15.6333 18.6666C14.9533 18.6666 14.2266 18.5066 13.4599 18.1799C12.6933 17.8533 11.9266 17.4133 11.1666 16.8599C10.3999 16.2999 9.67325 15.6799 8.97992 14.9933C8.29325 14.2999 7.67325 13.5733 7.11992 12.8133C6.57325 12.0533 6.13325 11.2933 5.81325 10.5399C5.49325 9.77992 5.33325 9.05325 5.33325 8.35992C5.33325 7.90659 5.41325 7.47325 5.57325 7.07325C5.73325 6.66659 5.98659 6.29325 6.33992 5.95992C6.76659 5.53992 7.23325 5.33325 7.72659 5.33325C7.91325 5.33325 8.09992 5.37325 8.26659 5.45325C8.43992 5.53325 8.59325 5.65325 8.71325 5.82659L10.2599 8.00659C10.3799 8.17325 10.4666 8.32659 10.5266 8.47325C10.5866 8.61325 10.6199 8.75325 10.6199 8.87992C10.6199 9.03992 10.5733 9.19992 10.4799 9.35325C10.3933 9.50658 10.2666 9.66658 10.1066 9.82658L9.59992 10.3533C9.52658 10.4266 9.49325 10.5133 9.49325 10.6199C9.49325 10.6733 9.49992 10.7199 9.51325 10.7733C9.53325 10.8266 9.55325 10.8666 9.56659 10.9066C9.68659 11.1266 9.89325 11.4133 10.1866 11.7599C10.4866 12.1066 10.8066 12.4599 11.1533 12.8133C11.5133 13.1666 11.8599 13.4933 12.2133 13.7933C12.5599 14.0866 12.8466 14.2866 13.0733 14.4066C13.1066 14.4199 13.1466 14.4399 13.1933 14.4599C13.2466 14.4799 13.2999 14.4866 13.3599 14.4866C13.4733 14.4866 13.5599 14.4466 13.6333 14.3733L14.1399 13.8733C14.3066 13.7066 14.4666 13.5799 14.6199 13.4999C14.7733 13.4066 14.9266 13.3599 15.0933 13.3599C15.2199 13.3599 15.3533 13.3866 15.4999 13.4466C15.6466 13.5066 15.7999 13.5933 15.9666 13.7066L18.1733 15.2733C18.3466 15.3933 18.4666 15.5333 18.5399 15.6999C18.6066 15.8666 18.6466 16.0333 18.6466 16.2199Z" stroke="white" stroke-miterlimit="10"/>
</svg>
