<svg width="25" height="24" viewBox="0 0 25 24" fill="none" xmlns="http://www.w3.org/2000/svg">
<path d="M12.8383 10.87C12.7383 10.86 12.6183 10.86 12.5083 10.87C10.1283 10.79 8.23828 8.84 8.23828 6.44C8.23828 3.99 10.2183 2 12.6783 2C15.1283 2 17.1183 3.99 17.1183 6.44C17.1083 8.84 15.2183 10.79 12.8383 10.87Z" stroke="#D3D1D8" stroke-width="1.5" stroke-linecap="round" stroke-linejoin="round"/>
<path d="M7.83844 14.56C5.41844 16.18 5.41844 18.82 7.83844 20.43C10.5884 22.27 15.0984 22.27 17.8484 20.43C20.2684 18.81 20.2684 16.17 17.8484 14.56C15.1084 12.73 10.5984 12.73 7.83844 14.56Z" stroke="#D3D1D8" stroke-width="1.5" stroke-linecap="round" stroke-linejoin="round"/>
</svg>
